<svg xmlns="http://www.w3.org/2000/svg" xmlns:xlink="http://www.w3.org/1999/xlink" width="1440" viewBox="0 0 1440 810" height="810" version="1.0"><defs><clipPath id="d"><path d="M 0 0 L 459.359375 0 L 459.359375 475 L 0 475 Z M 0 0"/></clipPath><clipPath id="c"><path d="M0 0H460V476H0z"/></clipPath><clipPath id="e"><path d="M 1388 83 L 1400 83 L 1400 91 L 1388 91 Z M 1388 83"/></clipPath><clipPath id="f"><path d="M 1246.6875 99.136719 L 1407.488281 53.132812 L 1447.097656 191.578125 L 1286.296875 237.582031 Z M 1246.6875 99.136719"/></clipPath><clipPath id="g"><path d="M 1246.6875 99.136719 L 1407.488281 53.132812 L 1447.097656 191.578125 L 1286.296875 237.582031 Z M 1246.6875 99.136719"/></clipPath><clipPath id="h"><path d="M 1248 78 L 1420 78 L 1420 202 L 1248 202 Z M 1248 78"/></clipPath><clipPath id="i"><path d="M 1246.6875 99.136719 L 1407.488281 53.132812 L 1447.097656 191.578125 L 1286.296875 237.582031 Z M 1246.6875 99.136719"/></clipPath><clipPath id="j"><path d="M 1246.6875 99.136719 L 1407.488281 53.132812 L 1447.097656 191.578125 L 1286.296875 237.582031 Z M 1246.6875 99.136719"/></clipPath><clipPath id="k"><path d="M 1246.769531 99.113281 L 1407.40625 53.15625 L 1440.597656 169.171875 L 1279.964844 215.132812 Z M 1246.769531 99.113281"/></clipPath><clipPath id="l"><path d="M 1246.769531 99.113281 L 1407.386719 53.160156 L 1440.582031 169.179688 L 1279.964844 215.132812 Z M 1246.769531 99.113281"/></clipPath><clipPath id="m"><path d="M 1331 201 L 1352 201 L 1352 222 L 1331 222 Z M 1331 201"/></clipPath><clipPath id="n"><path d="M 1246.6875 99.136719 L 1407.488281 53.132812 L 1447.097656 191.578125 L 1286.296875 237.582031 Z M 1246.6875 99.136719"/></clipPath><clipPath id="o"><path d="M 1246.6875 99.136719 L 1407.488281 53.132812 L 1447.097656 191.578125 L 1286.296875 237.582031 Z M 1246.6875 99.136719"/></clipPath><clipPath id="p"><path d="M 1328.695312 204.339844 L 1348.050781 198.804688 L 1353.746094 218.707031 L 1334.390625 224.242188 Z M 1328.695312 204.339844"/></clipPath><clipPath id="q"><path d="M 1328.695312 204.339844 L 1348.050781 198.804688 L 1353.628906 218.304688 L 1334.277344 223.839844 Z M 1328.695312 204.339844"/></clipPath><clipPath id="r"><path d="M 1394 183 L 1415 183 L 1415 204 L 1394 204 Z M 1394 183"/></clipPath><clipPath id="s"><path d="M 1246.6875 99.136719 L 1407.488281 53.132812 L 1447.097656 191.578125 L 1286.296875 237.582031 Z M 1246.6875 99.136719"/></clipPath><clipPath id="t"><path d="M 1246.6875 99.136719 L 1407.488281 53.132812 L 1447.097656 191.578125 L 1286.296875 237.582031 Z M 1246.6875 99.136719"/></clipPath><clipPath id="u"><path d="M 1391.597656 186.34375 L 1411.433594 180.667969 L 1417.128906 200.570312 L 1397.292969 206.246094 Z M 1391.597656 186.34375"/></clipPath><clipPath id="v"><path d="M 1391.597656 186.34375 L 1411.433594 180.667969 L 1417.015625 200.167969 L 1397.175781 205.84375 Z M 1391.597656 186.34375"/></clipPath><clipPath id="w"><path d="M 1276 228 L 1396 228 L 1396 363 L 1276 363 Z M 1276 228"/></clipPath><clipPath id="x"><path d="M 1329.148438 209.65625 L 1417.308594 251.292969 L 1364.460938 363.191406 L 1276.300781 321.554688 Z M 1329.148438 209.65625"/></clipPath><clipPath id="y"><path d="M 1329.148438 209.65625 L 1417.308594 251.292969 L 1364.460938 363.191406 L 1276.300781 321.554688 Z M 1329.148438 209.65625"/></clipPath><clipPath id="z"><path d="M 1329.195312 209.679688 L 1417.378906 251.328125 L 1364.519531 363.25 L 1276.335938 321.601562 Z M 1329.195312 209.679688"/></clipPath><clipPath id="A"><path d="M 1329.195312 209.679688 L 1417.269531 251.277344 L 1364.425781 363.167969 L 1276.351562 321.574219 Z M 1329.195312 209.679688"/></clipPath><clipPath id="B"><path d="M 1197 567 L 1440 567 L 1440 810 L 1197 810 Z M 1197 567"/></clipPath><clipPath id="C"><path d="M 1316 351 L 1440 351 L 1440 528 L 1316 528 Z M 1316 351"/></clipPath><clipPath id="D"><path d="M 1314.152344 414.890625 L 1463.65625 350.582031 L 1520.554688 482.867188 L 1371.046875 547.171875 Z M 1314.152344 414.890625"/></clipPath><clipPath id="E"><path d="M 1314.152344 414.890625 L 1463.65625 350.582031 L 1520.554688 482.867188 L 1371.046875 547.171875 Z M 1314.152344 414.890625"/></clipPath><clipPath id="F"><path d="M 14.023438 526 L 383 526 L 383 793.394531 L 14.023438 793.394531 Z M 14.023438 526"/></clipPath><clipPath id="G"><path d="M 274 469.394531 L 313 469.394531 L 313 572 L 274 572 Z M 274 469.394531"/></clipPath><clipPath id="H"><path d="M 1185 447 L 1325 447 L 1325 564 L 1185 564 Z M 1185 447"/></clipPath><clipPath id="I"><path d="M 1169.839844 454.1875 L 1282.941406 396.972656 L 1340.15625 510.078125 L 1227.050781 567.289062 Z M 1169.839844 454.1875"/></clipPath><clipPath id="J"><path d="M 1169.839844 454.1875 L 1282.941406 396.972656 L 1340.15625 510.078125 L 1227.050781 567.289062 Z M 1169.839844 454.1875"/></clipPath><clipPath id="K"><path d="M 1185 418 L 1325 418 L 1325 489 L 1185 489 Z M 1185 418"/></clipPath><clipPath id="L"><path d="M 1169.839844 454.1875 L 1282.941406 396.972656 L 1340.15625 510.078125 L 1227.050781 567.289062 Z M 1169.839844 454.1875"/></clipPath><clipPath id="M"><path d="M 1169.839844 454.1875 L 1282.941406 396.972656 L 1340.15625 510.078125 L 1227.050781 567.289062 Z M 1169.839844 454.1875"/></clipPath><clipPath id="N"><path d="M 1252 516 L 1269 516 L 1269 530 L 1252 530 Z M 1252 516"/></clipPath><clipPath id="O"><path d="M 1169.839844 454.1875 L 1282.941406 396.972656 L 1340.15625 510.078125 L 1227.050781 567.289062 Z M 1169.839844 454.1875"/></clipPath><clipPath id="P"><path d="M 1169.839844 454.1875 L 1282.941406 396.972656 L 1340.15625 510.078125 L 1227.050781 567.289062 Z M 1169.839844 454.1875"/></clipPath><filter x="0%" y="0%" width="100%" xmlns:xlink="http://www.w3.org/1999/xlink" xlink:type="simple" xlink:actuate="onLoad" height="100%" id="a" xlink:show="other"><feColorMatrix values="0 0 0 0 1 0 0 0 0 1 0 0 0 0 1 0 0 0 1 0" color-interpolation-filters="sRGB"/></filter><mask id="b"><g filter="url(#a)"><path fill-opacity=".62" d="M-144 -81H1584V891H-144z"/></g></mask></defs><path fill="#FFF" d="M-144 -81H1584V891H-144z"/><path fill="#FFF" d="M-144 -81H1584V891H-144z"/><path fill="#F3BC33" d="M-144 -81H1584V891H-144z"/><g mask="url(#b)"><g><g clip-path="url(#c)"><g clip-path="url(#d)"><path fill="#5C4815" d="M 310.761719 69.578125 C 393.691406 69.578125 444.179688 117.984375 456.347656 174.578125 C 466.203125 220.417969 450.921875 271.625 407.375 306.835938 C 389.523438 321.269531 368.492188 330.253906 346.226562 338.824219 C 273.488281 366.808594 277.164062 362.019531 228.914062 421.207031 C 154.621094 512.332031 -1.816406 480.378906 -44.183594 378.109375 C -69.453125 317.105469 -61.796875 234.253906 30.050781 154.632812 C 87.503906 104.828125 53.953125 16.648438 138.433594 -5.738281 C 161.75 -11.921875 187.289062 -9.449219 205.707031 4.171875 C 235.75 26.390625 248.398438 69.578125 310.761719 69.578125" fill-rule="evenodd"/></g></g></g></g><g clip-path="url(#e)"><g clip-path="url(#f)"><g clip-path="url(#g)"><path fill="#5E4915" d="M 1391.648438 90.113281 C 1393.84375 89.488281 1396.035156 88.859375 1398.230469 88.230469 C 1401.347656 87.339844 1399.960938 82.484375 1396.839844 83.378906 C 1394.648438 84.003906 1392.453125 84.632812 1390.261719 85.261719 C 1387.140625 86.152344 1388.53125 91.007812 1391.648438 90.113281"/></g></g></g><g clip-path="url(#h)"><g clip-path="url(#i)"><g clip-path="url(#j)"><g clip-path="url(#k)"><g clip-path="url(#l)"><path fill="#5E4915" d="M 1414.351562 143.425781 C 1406.132812 146.914062 1397.917969 150.402344 1389.703125 153.890625 C 1387.175781 145.058594 1384.652344 136.230469 1382.125 127.398438 C 1390.097656 125.117188 1398.074219 122.835938 1406.046875 120.554688 C 1408.285156 119.914062 1410.519531 119.273438 1412.753906 118.636719 C 1413.285156 126.898438 1413.816406 135.164062 1414.351562 143.425781 Z M 1322.023438 182.628906 C 1317.203125 171.332031 1312.378906 160.03125 1307.554688 148.734375 C 1313.871094 146.925781 1320.183594 145.121094 1326.496094 143.3125 C 1329.617188 142.421875 1328.230469 137.566406 1325.109375 138.460938 C 1318.589844 140.324219 1312.074219 142.1875 1305.554688 144.054688 C 1301.847656 135.363281 1298.136719 126.675781 1294.425781 117.984375 C 1294.421875 117.96875 1294.414062 117.949219 1294.40625 117.9375 C 1306.582031 114.453125 1318.753906 110.96875 1330.929688 107.488281 C 1333.511719 116.515625 1336.09375 125.546875 1338.679688 134.578125 C 1336.566406 135.179688 1334.457031 135.785156 1332.347656 136.386719 C 1329.226562 137.28125 1330.617188 142.136719 1333.734375 141.242188 C 1335.847656 140.636719 1337.957031 140.035156 1340.066406 139.429688 C 1343.089844 149.992188 1346.109375 160.554688 1349.132812 171.117188 C 1348.863281 171.234375 1348.59375 171.347656 1348.324219 171.460938 C 1339.558594 175.183594 1330.792969 178.90625 1322.023438 182.628906 Z M 1377.285156 128.78125 C 1379.867188 137.8125 1382.453125 146.84375 1385.035156 155.871094 C 1374.625 160.292969 1364.210938 164.714844 1353.800781 169.136719 C 1350.835938 158.773438 1347.871094 148.410156 1344.90625 138.046875 C 1355.699219 134.957031 1366.492188 131.871094 1377.285156 128.78125 Z M 1368.144531 96.839844 C 1370.730469 105.867188 1373.3125 114.898438 1375.898438 123.929688 C 1365.101562 127.015625 1354.3125 130.105469 1343.515625 133.191406 C 1340.933594 124.164062 1338.351562 115.132812 1335.765625 106.101562 C 1345.078125 103.4375 1354.390625 100.773438 1363.703125 98.109375 C 1365.183594 97.6875 1366.664062 97.261719 1368.144531 96.839844 Z M 1271.519531 103.542969 C 1269.121094 104.226562 1266.726562 104.914062 1264.332031 105.597656 C 1262.148438 106.222656 1259.964844 106.847656 1257.78125 107.472656 C 1255.511719 108.121094 1254.332031 107.175781 1253.691406 104.929688 C 1253.027344 102.609375 1255.300781 102 1256.9375 101.53125 C 1259.332031 100.84375 1261.726562 100.160156 1264.125 99.472656 C 1266.308594 98.847656 1268.492188 98.226562 1270.675781 97.601562 C 1272.941406 96.949219 1274.121094 97.894531 1274.765625 100.144531 C 1275.273438 102.503906 1273.238281 103.050781 1271.519531 103.542969 Z M 1412.1875 78.988281 C 1409.449219 79.769531 1406.710938 80.554688 1403.976562 81.335938 C 1400.855469 82.230469 1402.246094 87.082031 1405.363281 86.191406 C 1407.101562 85.695312 1408.835938 85.199219 1410.570312 84.699219 C 1411.191406 94.292969 1411.804688 103.886719 1412.421875 113.476562 C 1401.859375 116.5 1391.296875 119.523438 1380.734375 122.542969 C 1378.152344 113.515625 1375.566406 104.484375 1372.984375 95.453125 C 1376.539062 94.4375 1380.09375 93.421875 1383.648438 92.402344 C 1386.769531 91.511719 1385.378906 86.65625 1382.257812 87.550781 C 1358.253906 94.417969 1334.246094 101.285156 1310.242188 108.15625 C 1304.191406 109.886719 1298.144531 111.613281 1292.101562 113.34375 C 1289.773438 107.957031 1287.445312 102.570312 1285.121094 97.179688 C 1284.574219 95.917969 1283.453125 95.03125 1282.007812 95.445312 C 1280.886719 95.765625 1279.769531 96.085938 1278.652344 96.40625 C 1276.980469 93.347656 1274.011719 91.675781 1270.117188 92.507812 C 1267.792969 93.007812 1265.492188 93.832031 1263.207031 94.484375 C 1260.257812 95.328125 1257.3125 96.171875 1254.359375 97.015625 C 1250.132812 98.226562 1247.929688 102.027344 1248.851562 106.316406 C 1249.835938 110.894531 1253.765625 113.542969 1258.335938 112.566406 C 1260.664062 112.066406 1262.960938 111.242188 1265.246094 110.585938 C 1268.195312 109.742188 1271.144531 108.898438 1274.09375 108.054688 C 1277.445312 107.097656 1279.519531 104.503906 1279.777344 101.335938 C 1280.28125 101.191406 1280.785156 101.046875 1281.292969 100.902344 C 1290.613281 122.492188 1299.933594 144.082031 1309.257812 165.675781 C 1314.128906 176.960938 1319.003906 188.25 1323.878906 199.535156 C 1324.421875 200.796875 1325.542969 201.683594 1326.992188 201.269531 C 1351.160156 194.355469 1375.328125 187.441406 1399.496094 180.527344 C 1403.6875 179.328125 1407.878906 178.128906 1412.070312 176.929688 C 1415.191406 176.035156 1413.804688 171.183594 1410.683594 172.074219 C 1386.515625 178.988281 1362.347656 185.902344 1338.179688 192.820312 C 1334.6875 193.816406 1331.195312 194.816406 1327.707031 195.816406 C 1326.472656 192.953125 1325.238281 190.09375 1324 187.234375 C 1345.789062 177.984375 1367.574219 168.730469 1389.359375 159.480469 C 1398.792969 155.476562 1408.230469 151.46875 1417.667969 147.460938 C 1418.667969 147.035156 1419.566406 146.222656 1419.488281 145.011719 C 1418.125 123.804688 1416.761719 102.597656 1415.398438 81.390625 C 1415.292969 79.769531 1413.820312 78.519531 1412.1875 78.988281"/></g></g></g></g></g><g clip-path="url(#m)"><g clip-path="url(#n)"><g clip-path="url(#o)"><g clip-path="url(#p)"><g clip-path="url(#q)"><path fill="#5E4915" d="M 1336.660156 212.828125 C 1334.65625 206.851562 1344.003906 204.207031 1346 210.15625 C 1347.460938 216.28125 1338.660156 218.800781 1336.660156 212.828125 Z M 1350.574219 208.089844 C 1348.609375 203.25 1343.769531 200.722656 1338.597656 201.953125 C 1333.199219 203.238281 1330.613281 209.152344 1331.820312 214.210938 C 1333.113281 219.628906 1339.015625 222.230469 1344.058594 221.03125 C 1349.222656 219.804688 1351.804688 214.34375 1350.972656 209.449219 C 1350.957031 209.234375 1350.914062 209.007812 1350.835938 208.773438 C 1350.777344 208.515625 1350.683594 208.289062 1350.574219 208.089844"/></g></g></g></g></g><g clip-path="url(#r)"><g clip-path="url(#s)"><g clip-path="url(#t)"><g clip-path="url(#u)"><g clip-path="url(#v)"><path fill="#5E4915" d="M 1399.761719 194.773438 C 1397.757812 188.800781 1407.105469 186.15625 1409.101562 192.101562 C 1410.5625 198.226562 1401.761719 200.746094 1399.761719 194.773438 Z M 1413.679688 190.039062 C 1411.714844 185.195312 1406.871094 182.667969 1401.703125 183.898438 C 1396.300781 185.183594 1393.71875 191.101562 1394.921875 196.160156 C 1396.214844 201.574219 1402.117188 204.179688 1407.160156 202.976562 C 1412.324219 201.75 1414.910156 196.292969 1414.074219 191.394531 C 1414.058594 191.179688 1414.019531 190.953125 1413.941406 190.71875 C 1413.878906 190.460938 1413.789062 190.238281 1413.679688 190.039062"/></g></g></g></g></g><g clip-path="url(#w)"><g clip-path="url(#x)"><g clip-path="url(#y)"><g clip-path="url(#z)"><g clip-path="url(#A)"><path fill="#5E4915" d="M 1365.632812 294.3125 C 1365.613281 294.363281 1365.59375 294.417969 1365.566406 294.472656 C 1363.675781 298.476562 1361.785156 302.480469 1359.894531 306.484375 C 1356.691406 313.261719 1350.03125 318.105469 1342.449219 318.355469 C 1336.589844 318.550781 1330.890625 316.269531 1326.898438 311.953125 C 1323.082031 307.820312 1321.125 302.082031 1321.671875 296.460938 C 1322.050781 292.589844 1323.738281 289.269531 1325.367188 285.820312 C 1326.695312 283.003906 1328.027344 280.1875 1329.355469 277.371094 C 1329.382812 277.316406 1329.410156 277.265625 1329.441406 277.21875 C 1328.21875 276.046875 1327.820312 274.183594 1328.585938 272.5625 C 1329.542969 270.539062 1331.953125 269.667969 1333.96875 270.617188 C 1335.984375 271.570312 1336.84375 273.988281 1335.886719 276.011719 C 1335.121094 277.632812 1333.429688 278.507812 1331.75 278.308594 C 1331.730469 278.363281 1331.707031 278.414062 1331.683594 278.46875 C 1330.042969 281.945312 1328.398438 285.421875 1326.757812 288.898438 C 1325.949219 290.613281 1325.085938 292.3125 1324.65625 294.175781 C 1323.890625 297.503906 1324 301 1325.175781 304.214844 C 1327.167969 309.660156 1331.777344 314.007812 1337.476562 315.308594 C 1343.039062 316.582031 1348.964844 315.171875 1353.253906 311.328125 C 1356.167969 308.714844 1357.621094 305.269531 1359.25 301.824219 C 1360.582031 299.007812 1361.910156 296.191406 1363.242188 293.371094 C 1363.265625 293.320312 1363.292969 293.269531 1363.324219 293.222656 C 1362.101562 292.050781 1361.703125 290.183594 1362.46875 288.5625 C 1363.425781 286.539062 1365.835938 285.667969 1367.851562 286.621094 C 1369.871094 287.574219 1370.730469 289.988281 1369.773438 292.011719 C 1369.007812 293.632812 1367.3125 294.511719 1365.632812 294.3125 Z M 1326.109375 246.976562 C 1335.964844 251.632812 1345.824219 256.285156 1355.679688 260.941406 C 1367.238281 266.402344 1378.796875 271.859375 1390.359375 277.320312 C 1391.027344 280.136719 1391.699219 282.957031 1392.367188 285.773438 C 1384.226562 281.929688 1376.085938 278.085938 1367.945312 274.242188 C 1367.902344 274.21875 1367.859375 274.199219 1367.8125 274.175781 C 1353.648438 267.488281 1339.484375 260.796875 1325.320312 254.109375 C 1325.277344 254.089844 1325.234375 254.066406 1325.1875 254.046875 C 1322.894531 252.964844 1320.597656 251.878906 1318.300781 250.792969 C 1320.90625 249.523438 1323.507812 248.25 1326.109375 246.976562 Z M 1353.367188 235.753906 C 1357.65625 231.90625 1363.582031 230.496094 1369.144531 231.769531 C 1374.84375 233.070312 1379.453125 237.421875 1381.445312 242.859375 C 1382.621094 246.078125 1382.730469 249.574219 1381.964844 252.902344 C 1381.535156 254.765625 1380.671875 256.464844 1379.863281 258.179688 C 1378.40625 261.265625 1376.945312 264.351562 1375.488281 267.441406 C 1370.957031 265.300781 1366.421875 263.15625 1361.890625 261.015625 C 1355.902344 258.191406 1349.917969 255.363281 1343.929688 252.535156 C 1345.078125 250.109375 1346.222656 247.683594 1347.371094 245.253906 C 1348.996094 241.808594 1350.453125 238.363281 1353.367188 235.753906 Z M 1377.171875 332.667969 C 1382.769531 319.203125 1388.367188 305.738281 1393.96875 292.273438 C 1394.46875 291.070312 1394.96875 289.867188 1395.464844 288.667969 C 1395.636719 288.253906 1395.609375 287.800781 1395.398438 287.441406 C 1394.503906 283.671875 1393.605469 279.898438 1392.707031 276.128906 C 1392.699219 276.078125 1392.6875 276.027344 1392.671875 275.976562 C 1392.671875 275.976562 1392.671875 275.976562 1392.671875 275.972656 C 1392.539062 275.417969 1392.167969 275.160156 1391.753906 275.121094 C 1387.109375 272.925781 1382.460938 270.734375 1377.816406 268.539062 C 1378.960938 266.113281 1380.109375 263.683594 1381.253906 261.257812 C 1382.882812 257.808594 1384.570312 254.488281 1384.945312 250.617188 C 1385.496094 244.992188 1383.539062 239.257812 1379.722656 235.128906 C 1375.730469 230.808594 1370.03125 228.527344 1364.171875 228.722656 C 1356.589844 228.972656 1349.925781 233.8125 1346.726562 240.589844 C 1345.019531 244.207031 1343.3125 247.820312 1341.605469 251.4375 C 1336.796875 249.164062 1331.988281 246.894531 1327.175781 244.625 C 1326.914062 244.5 1326.625 244.328125 1326.332031 244.277344 C 1325.363281 244.109375 1323.960938 245.175781 1323.152344 245.570312 C 1320.402344 246.914062 1317.652344 248.261719 1314.898438 249.605469 C 1314.863281 249.625 1314.832031 249.644531 1314.800781 249.664062 C 1314.539062 249.789062 1314.316406 249.996094 1314.167969 250.269531 C 1309.199219 259.621094 1304.234375 268.972656 1299.265625 278.320312 C 1292.421875 291.199219 1285.578125 304.078125 1278.734375 316.957031 C 1278.125 318.105469 1277.511719 319.253906 1276.902344 320.40625 C 1276.570312 321.027344 1276.902344 321.832031 1277.515625 322.121094 C 1286.027344 326.140625 1294.539062 330.164062 1303.050781 334.183594 C 1317.765625 341.132812 1332.484375 348.082031 1347.203125 355.035156 C 1352.554688 357.5625 1357.910156 360.089844 1363.261719 362.617188 C 1363.515625 362.738281 1363.757812 362.769531 1363.976562 362.738281 C 1364.382812 362.722656 1364.769531 362.503906 1364.976562 362 C 1369.042969 352.222656 1373.105469 342.445312 1377.171875 332.667969"/></g></g></g></g></g><g clip-path="url(#B)"><path fill="#5E4915" d="M 1359 568.769531 L 1359 566.988281 C 1269.523438 566.988281 1196.992188 639.527344 1196.988281 729.003906 C 1196.992188 818.480469 1269.523438 891.007812 1359 891.007812 C 1448.472656 891.007812 1521.007812 818.480469 1521.007812 729.003906 C 1521.007812 639.527344 1448.472656 566.988281 1359 566.988281 L 1359 570.546875 C 1402.757812 570.546875 1442.363281 588.28125 1471.042969 616.960938 C 1499.71875 645.640625 1517.449219 685.242188 1517.449219 729.003906 C 1517.449219 772.761719 1499.71875 812.363281 1471.042969 841.046875 C 1442.363281 869.722656 1402.757812 887.453125 1359 887.453125 C 1315.238281 887.453125 1275.636719 869.722656 1246.957031 841.046875 C 1218.28125 812.363281 1200.546875 772.765625 1200.546875 729.003906 C 1200.546875 685.242188 1218.28125 645.640625 1246.957031 616.960938 C 1275.636719 588.28125 1315.238281 570.546875 1359 570.546875 L 1359 568.769531"/></g><path fill="#5E4915" d="M 1359 748.933594 L 1359 747.152344 C 1353.984375 747.152344 1349.457031 745.125 1346.167969 741.839844 C 1342.882812 738.546875 1340.855469 734.023438 1340.855469 729.003906 C 1340.855469 723.992188 1342.882812 719.460938 1346.167969 716.171875 C 1349.457031 712.882812 1353.984375 710.855469 1359 710.855469 C 1364.015625 710.855469 1368.539062 712.882812 1371.832031 716.171875 C 1375.117188 719.460938 1377.144531 723.992188 1377.144531 729.003906 C 1377.144531 734.023438 1375.117188 738.546875 1371.832031 741.839844 C 1368.539062 745.125 1364.015625 747.152344 1359 747.152344 L 1359 750.714844 C 1370.988281 750.710938 1380.703125 740.996094 1380.703125 729.003906 C 1380.703125 717.019531 1370.992188 707.300781 1359 707.296875 C 1347.011719 707.300781 1337.296875 717.019531 1337.296875 729.003906 C 1337.296875 740.996094 1347.011719 750.710938 1359 750.714844 Z M 1359 653.839844 L 1359 652.058594 C 1316.503906 652.058594 1282.050781 686.511719 1282.050781 729.003906 C 1282.050781 771.503906 1316.503906 805.945312 1359 805.949219 C 1401.5 805.945312 1435.945312 771.503906 1435.945312 729.003906 C 1435.945312 686.515625 1401.5 652.058594 1359 652.058594 L 1359 655.617188 C 1379.269531 655.617188 1397.609375 663.828125 1410.894531 677.113281 C 1424.175781 690.398438 1432.386719 708.734375 1432.386719 729.003906 C 1432.386719 749.277344 1424.175781 767.613281 1410.894531 780.898438 C 1397.609375 794.179688 1379.269531 802.386719 1359 802.386719 C 1338.726562 802.386719 1320.394531 794.179688 1307.105469 780.898438 C 1293.824219 767.613281 1285.609375 749.277344 1285.609375 729.003906 C 1285.609375 708.734375 1293.824219 690.398438 1307.105469 677.113281 C 1320.394531 663.828125 1338.726562 655.617188 1359 655.617188 L 1359 653.839844"/><path fill="#5E4915" d="M 1225.800781 774.921875 C 1237.183594 807.667969 1260.347656 835.011719 1290.199219 851.828125 C 1291.054688 852.3125 1292.140625 852.007812 1292.625 851.152344 C 1293.101562 850.296875 1292.800781 849.210938 1291.945312 848.726562 C 1262.84375 832.335938 1240.25 805.660156 1229.160156 773.75 C 1228.839844 772.820312 1227.828125 772.332031 1226.898438 772.65625 C 1225.972656 772.980469 1225.476562 773.992188 1225.800781 774.921875"/><path fill="#5E4915" d="M 1216.914062 778.023438 C 1229.03125 813.027344 1253.703125 842.179688 1285.585938 860.074219 C 1286.445312 860.554688 1287.527344 860.25 1288.007812 859.390625 C 1288.492188 858.535156 1288.1875 857.449219 1287.328125 856.96875 C 1256.203125 839.503906 1232.101562 811.023438 1220.277344 776.859375 C 1219.953125 775.933594 1218.941406 775.441406 1218.015625 775.761719 C 1217.082031 776.085938 1216.59375 777.097656 1216.914062 778.027344"/><path fill="#5E4915" d="M 1275.214844 757.640625 C 1282.324219 778.378906 1296.871094 795.636719 1315.753906 806.207031 C 1316.613281 806.6875 1317.695312 806.382812 1318.175781 805.527344 C 1318.65625 804.667969 1318.351562 803.582031 1317.492188 803.105469 C 1299.367188 792.957031 1285.402344 776.382812 1278.582031 756.484375 C 1278.261719 755.558594 1277.25 755.0625 1276.320312 755.378906 C 1275.390625 755.699219 1274.894531 756.710938 1275.214844 757.640625"/><path fill="#5E4915" d="M 1245.609375 767.992188 C 1255.230469 796.058594 1274.871094 819.347656 1300.414062 833.605469 C 1301.273438 834.082031 1302.359375 833.773438 1302.835938 832.917969 C 1303.316406 832.058594 1303.007812 830.972656 1302.152344 830.496094 C 1277.371094 816.664062 1258.3125 794.074219 1248.976562 766.835938 C 1248.65625 765.90625 1247.644531 765.410156 1246.714844 765.730469 C 1245.785156 766.050781 1245.289062 767.058594 1245.609375 767.992188"/><path fill="#5E4915" d="M 1255.804688 764.429688 C 1264.59375 789.882812 1282.523438 811.109375 1305.714844 824.132812 C 1306.570312 824.609375 1307.652344 824.308594 1308.136719 823.449219 C 1308.617188 822.597656 1308.3125 821.511719 1307.457031 821.027344 C 1285.019531 808.429688 1267.664062 787.882812 1259.167969 763.269531 C 1258.847656 762.339844 1257.835938 761.847656 1256.90625 762.167969 C 1255.976562 762.488281 1255.480469 763.503906 1255.804688 764.429688"/><path fill="#5E4915" d="M 1265.9375 760.882812 C 1270.621094 774.550781 1278.289062 787.019531 1288.601562 797.582031 C 1295.289062 804.441406 1302.8125 810.191406 1310.957031 814.761719 C 1311.816406 815.246094 1312.902344 814.941406 1313.378906 814.082031 C 1313.863281 813.226562 1313.558594 812.144531 1312.703125 811.660156 C 1304.847656 807.253906 1297.605469 801.714844 1291.148438 795.097656 C 1281.199219 784.90625 1273.8125 772.898438 1269.304688 759.726562 C 1268.988281 758.800781 1267.976562 758.304688 1267.046875 758.621094 C 1266.117188 758.9375 1265.621094 759.953125 1265.9375 760.882812"/><path fill="#5E4915" d="M 1235.1875 771.632812 C 1241.515625 789.90625 1251.851562 806.742188 1265.546875 820.6875 C 1274.300781 829.597656 1284.265625 837.140625 1295.050781 843.175781 C 1295.90625 843.65625 1296.992188 843.347656 1297.472656 842.492188 C 1297.949219 841.636719 1297.644531 840.550781 1296.789062 840.070312 C 1286.292969 834.191406 1276.59375 826.855469 1268.082031 818.191406 C 1254.765625 804.632812 1244.707031 788.25 1238.550781 770.46875 C 1238.226562 769.542969 1237.21875 769.046875 1236.285156 769.371094 C 1235.359375 769.695312 1234.867188 770.707031 1235.1875 771.636719"/><path fill="#5E4915" d="M 1444.886719 680.625 C 1433.171875 659.835938 1414.132812 643.734375 1391.324219 635.808594 C 1390.394531 635.488281 1389.378906 635.976562 1389.058594 636.90625 C 1388.734375 637.835938 1389.226562 638.847656 1390.15625 639.171875 C 1412.132812 646.804688 1430.492188 662.335938 1441.789062 682.371094 C 1442.269531 683.226562 1443.355469 683.53125 1444.214844 683.046875 C 1445.070312 682.5625 1445.371094 681.480469 1444.886719 680.625"/><path fill="#5E4915" d="M 1490.1875 655.261719 C 1483.296875 642.988281 1474.707031 631.636719 1464.574219 621.660156 C 1448.628906 605.960938 1429.355469 594.101562 1408.445312 586.8125 C 1407.515625 586.488281 1406.503906 586.980469 1406.179688 587.910156 C 1405.855469 588.835938 1406.347656 589.847656 1407.273438 590.175781 C 1427.691406 597.289062 1446.515625 608.871094 1462.078125 624.191406 C 1471.96875 633.929688 1480.355469 645.015625 1487.085938 657.003906 C 1487.570312 657.859375 1488.652344 658.164062 1489.507812 657.683594 C 1490.367188 657.203125 1490.671875 656.117188 1490.1875 655.261719"/><path fill="#5E4915" d="M 1473.40625 664.65625 C 1457.84375 636.960938 1432.515625 615.550781 1402.089844 604.992188 C 1401.15625 604.671875 1400.144531 605.164062 1399.824219 606.089844 C 1399.503906 607.019531 1399.992188 608.035156 1400.921875 608.355469 C 1430.519531 618.621094 1455.164062 639.457031 1470.308594 666.398438 C 1470.789062 667.257812 1471.871094 667.558594 1472.730469 667.078125 C 1473.585938 666.597656 1473.890625 665.511719 1473.40625 664.65625"/><path fill="#5E4915" d="M 1482.03125 659.832031 C 1475.558594 648.292969 1467.476562 637.628906 1457.957031 628.265625 C 1443.023438 613.578125 1424.957031 602.464844 1405.363281 595.632812 C 1404.433594 595.3125 1403.417969 595.804688 1403.097656 596.734375 C 1402.773438 597.660156 1403.261719 598.671875 1404.191406 599 C 1423.292969 605.652344 1440.914062 616.496094 1455.460938 630.804688 C 1464.734375 639.925781 1472.617188 650.320312 1478.929688 661.574219 C 1479.414062 662.433594 1480.496094 662.734375 1481.355469 662.253906 C 1482.210938 661.777344 1482.515625 660.691406 1482.035156 659.832031"/><path fill="#5E4915" d="M 1436.414062 685.375 C 1425.890625 666.574219 1408.773438 652.152344 1388.089844 645.042969 C 1387.160156 644.722656 1386.148438 645.21875 1385.828125 646.148438 C 1385.507812 647.078125 1386.003906 648.089844 1386.933594 648.410156 C 1406.789062 655.230469 1423.207031 669.070312 1433.308594 687.117188 C 1433.785156 687.972656 1434.871094 688.277344 1435.726562 687.796875 C 1436.585938 687.316406 1436.890625 686.234375 1436.414062 685.375"/><path fill="#5E4915" d="M 1454.363281 675.328125 C 1441.414062 652.179688 1420.328125 634.386719 1394.875 625.625 C 1393.941406 625.304688 1392.933594 625.796875 1392.613281 626.730469 C 1392.292969 627.65625 1392.785156 628.667969 1393.71875 628.992188 C 1418.339844 637.464844 1438.734375 654.671875 1451.257812 677.0625 C 1451.738281 677.921875 1452.820312 678.226562 1453.679688 677.746094 C 1454.535156 677.269531 1454.84375 676.183594 1454.363281 675.328125"/><path fill="#5E4915" d="M 1463.660156 670.113281 C 1449.363281 644.820312 1426.148438 625.195312 1398.417969 615.503906 C 1397.492188 615.183594 1396.476562 615.671875 1396.152344 616.601562 C 1395.828125 617.527344 1396.316406 618.542969 1397.246094 618.867188 C 1424.144531 628.257812 1446.695312 647.324219 1460.5625 671.863281 C 1461.042969 672.71875 1462.132812 673.019531 1462.984375 672.539062 C 1463.839844 672.050781 1464.144531 670.96875 1463.660156 670.113281"/><g clip-path="url(#C)"><g clip-path="url(#D)"><g clip-path="url(#E)"><path fill="#5E4915" d="M 1422.910156 455.640625 L 1446.582031 510.675781 C 1452.757812 508.144531 1458.035156 505.25 1463.273438 502.339844 C 1455.179688 484.234375 1447.714844 464.75 1439.296875 447.675781 C 1434.070312 450.421875 1428.902344 453.195312 1422.910156 455.640625 Z M 1402.414062 464.226562 L 1425.746094 518.480469 C 1431.398438 516.695312 1437.066406 514.882812 1443.082031 512.179688 L 1419.414062 457.148438 C 1413.515625 459.820312 1407.96875 461.597656 1402.359375 463.5625 C 1402.144531 463.6875 1402.277344 463.957031 1402.414062 464.226562 Z M 1442.824219 445.695312 L 1466.40625 500.53125 C 1471.328125 497.554688 1475.746094 494.371094 1480.125 491.175781 L 1456.621094 436.53125 L 1456.234375 436.699219 C 1452.214844 439.875 1447.519531 442.785156 1442.824219 445.695312 Z M 1383.214844 468.335938 C 1383.019531 468.050781 1382.945312 468.46875 1383.1875 468.808594 L 1406.441406 522.871094 C 1411.496094 522.167969 1416.777344 520.921875 1422.082031 519.597656 L 1398.496094 464.761719 C 1393.320312 466.148438 1388.269531 467.246094 1383.214844 468.335938 Z M 1459.59375 434.332031 C 1467.660156 451.835938 1475.242188 470.542969 1483.121094 488.503906 C 1485.203125 486.539062 1487.519531 484.671875 1488.78125 482.382812 C 1480.675781 465.132812 1473.335938 445.933594 1465.226562 428.6875 C 1463.648438 430.683594 1461.105469 432.304688 1459.59375 434.332031 Z M 1370.742188 469.324219 L 1393.992188 523.382812 C 1396.644531 523.875 1399.648438 523.476562 1402.523438 523.402344 L 1379.019531 468.757812 C 1376.152344 469.214844 1373.492188 469.15625 1370.742188 469.324219 Z M 1492.609375 475.207031 C 1491.941406 471.386719 1488.84375 466.453125 1487.003906 462.175781 C 1481.613281 449.636719 1474.601562 432.925781 1469.746094 422.589844 C 1469.261719 423.738281 1468.078125 424.609375 1467.945312 425.902344 L 1490.945312 479.378906 C 1491.777344 478.527344 1492.871094 476.726562 1492.609375 475.207031 Z M 1362.542969 468.472656 C 1367.457031 479.898438 1374.132812 495.429688 1379.519531 507.949219 C 1381.066406 511.542969 1383.058594 518.476562 1385.207031 521.167969 C 1386.0625 522.242188 1388.941406 523.003906 1389.683594 522.472656 L 1366.683594 468.996094 C 1365.40625 469.042969 1363.035156 467.707031 1362.542969 468.472656 Z M 1360.199219 463.027344 C 1362.148438 465.472656 1369.140625 465.441406 1372.957031 465.375 C 1395.824219 464.972656 1427.507812 452.074219 1448.785156 437.601562 C 1457.414062 431.730469 1465.070312 425.230469 1467.765625 417.453125 L 1464.753906 410.449219 C 1463.519531 411.84375 1462.792969 413.671875 1461.539062 415.292969 C 1451.859375 427.800781 1431.9375 438.167969 1412.144531 446.679688 C 1392.238281 455.234375 1371.734375 459.878906 1357.101562 455.835938 C 1358.378906 457.550781 1358.65625 461.097656 1360.195312 463.027344 Z M 1448.722656 410.667969 C 1448.21875 405.664062 1440.304688 403.933594 1435.210938 406.570312 C 1433.34375 407.535156 1432.261719 408.996094 1430.824219 410.300781 C 1424.09375 410.613281 1417.328125 411.019531 1410.566406 411.410156 C 1409.722656 412.464844 1408.09375 413.214844 1407.738281 414.46875 C 1415.566406 413.949219 1423.390625 413.457031 1431.132812 413.160156 C 1433.992188 419.789062 1449.476562 418.140625 1448.722656 410.667969 Z M 1387.84375 419.109375 C 1377.089844 424.960938 1366.046875 431.835938 1359.140625 440.210938 C 1357.066406 442.722656 1354.363281 446.785156 1355.648438 449.777344 C 1357.238281 453.464844 1364.09375 453.921875 1368.023438 453.902344 C 1395.136719 453.765625 1437.472656 435.207031 1455.894531 416.105469 C 1458.539062 413.367188 1463.316406 408.175781 1461.605469 404.203125 C 1460.210938 400.957031 1454.695312 400.386719 1451.597656 400.210938 C 1443.480469 399.75 1435.449219 401.175781 1426.949219 403.441406 C 1422.539062 404.617188 1417.605469 405.671875 1414.257812 408.207031 C 1419.285156 407.726562 1424.210938 407.488281 1429.09375 407.355469 C 1434.824219 400.335938 1448.078125 399.851562 1451.4375 407.882812 C 1456.332031 419.566406 1434.664062 425.363281 1429.441406 416.191406 C 1420.839844 416.890625 1412.417969 417.132812 1403.847656 417.753906 C 1397.71875 423.582031 1391.644531 429.429688 1385.304688 435.175781 C 1388.183594 445.144531 1369.128906 457.457031 1364.0625 445.238281 C 1360.808594 437.382812 1370.109375 428.167969 1379.132812 428.847656 C 1382.324219 425.445312 1386.203125 422.320312 1389.375 418.910156 C 1389.902344 418.875 1390.148438 418.253906 1389.480469 418.632812 C 1388.511719 418.320312 1388.394531 418.808594 1387.84375 419.109375 Z M 1379.886719 432.207031 C 1378.03125 432.136719 1376.039062 432.144531 1374.164062 432.828125 C 1367.75 435.164062 1363.421875 446.328125 1371.265625 446.976562 C 1378.109375 447.542969 1383.335938 439.351562 1382.25 433.957031 C 1409.125 408.632812 1435.863281 383.25 1462.933594 358.007812 C 1462.34375 357.0625 1461.644531 356.382812 1460.875 355.898438 C 1433.914062 381.347656 1406.945312 406.792969 1379.886719 432.207031 Z M 1320.039062 419.46875 C 1340.53125 418.109375 1363.164062 416.921875 1384.144531 415.859375 C 1388.890625 415.617188 1394.34375 416.164062 1396.394531 412.207031 C 1370.902344 413.648438 1345.394531 415.125 1319.921875 416.523438 C 1319.742188 417.417969 1319.753906 418.390625 1320.039062 419.46875 Z M 1461.203125 351.835938 C 1463.136719 353.339844 1465.492188 355.863281 1466.742188 357.75 C 1465.683594 360.097656 1463.40625 361.707031 1461.578125 363.429688 C 1448.382812 375.832031 1434.667969 388.886719 1421.195312 401.304688 C 1432.710938 398.726562 1443.90625 395.25 1454.457031 396.679688 C 1457.332031 397.066406 1461.382812 398.113281 1463.351562 400.226562 C 1466.40625 403.503906 1469.726562 413.96875 1471.855469 418.917969 L 1492.601562 467.148438 C 1494.078125 470.585938 1495.988281 473.964844 1496.136719 476.453125 C 1496.335938 479.667969 1492.511719 484.507812 1489.625 487.550781 C 1474.40625 503.582031 1443.453125 517.980469 1418.117188 524.300781 C 1404.960938 527.578125 1391.863281 529.722656 1382.792969 523.59375 C 1375.515625 506.671875 1367.417969 487.851562 1359.875 470.3125 C 1356.59375 462.675781 1351.554688 453.914062 1351.785156 447.753906 C 1351.871094 445.429688 1352.816406 442.992188 1353.972656 441.050781 C 1359.1875 432.296875 1370.128906 425.691406 1380.730469 419.171875 C 1359.761719 419.777344 1338.125 422.050781 1317.316406 422.25 C 1316.695312 419.988281 1316.453125 416.558594 1316.832031 414.164062 C 1316.789062 414 1317.222656 413.296875 1317.332031 413.71875 C 1345 411.9375 1372.566406 410.414062 1400.085938 409.003906 C 1420.441406 390.050781 1440.625 370.167969 1461.207031 351.835938" fill-rule="evenodd"/></g></g></g><g clip-path="url(#F)"><path fill="#5E4915" d="M 20.492188 590.101562 L 20.96875 590.101562 L 39.566406 787.597656 C 39.886719 790.851562 42.589844 793.394531 45.925781 793.394531 L 300.253906 793.394531 C 317.816406 793.394531 332.042969 779.179688 332.042969 761.628906 C 332.042969 758.136719 329.183594 755.277344 325.6875 755.277344 L 296.996094 755.277344 C 299.460938 749.003906 301.683594 742.648438 303.671875 736.21875 L 332.042969 736.21875 C 360.101562 736.21875 382.910156 713.425781 382.910156 685.394531 C 382.910156 657.363281 360.101562 634.570312 332.042969 634.570312 L 318.535156 634.570312 L 319.328125 622.261719 C 319.40625 620.515625 318.851562 618.765625 317.660156 617.496094 C 316.46875 616.226562 314.796875 615.511719 313.050781 615.511719 L 195.582031 615.511719 L 197.964844 590.101562 L 198.523438 590.101562 C 202.019531 590.101562 204.882812 587.242188 204.882812 583.746094 L 204.882812 558.335938 C 204.882812 554.839844 202.019531 551.980469 198.523438 551.980469 L 197.09375 551.980469 L 191.925781 531.414062 C 191.210938 528.554688 188.667969 526.570312 185.726562 526.570312 L 33.210938 526.570312 C 30.269531 526.570312 27.726562 528.554688 27.011719 531.414062 L 21.925781 551.980469 L 20.492188 551.980469 C 16.996094 551.980469 14.136719 554.839844 14.136719 558.335938 L 14.136719 583.746094 C 14.136719 587.242188 16.996094 590.101562 20.492188 590.101562 Z M 192.164062 577.394531 L 26.851562 577.394531 L 26.851562 564.6875 L 192.164062 564.6875 Z M 141.695312 628.21875 L 144.398438 669.273438 C 145.511719 685.472656 147.894531 701.433594 151.632812 717.160156 L 45.765625 717.160156 L 41.15625 668.242188 L 93.53125 628.21875 Z M 39.726562 653.3125 L 33.84375 590.101562 L 122.542969 590.101562 Z M 46.960938 729.863281 L 155.046875 729.863281 C 157.511719 738.441406 160.375 746.9375 163.632812 755.277344 L 134.941406 755.277344 C 131.445312 755.277344 128.582031 758.136719 128.582031 761.628906 C 128.582031 768.777344 130.96875 775.367188 134.941406 780.6875 L 51.726562 780.6875 Z M 300.253906 780.6875 L 160.375 780.6875 C 152.109375 780.6875 145.035156 775.367188 142.410156 767.980469 L 318.296875 767.980469 C 315.59375 775.367188 308.519531 780.6875 300.253906 780.6875 Z M 315.910156 672.6875 L 332.042969 672.6875 C 339.039062 672.6875 344.761719 678.40625 344.761719 685.394531 C 344.761719 692.382812 339.039062 698.101562 332.042969 698.101562 L 312.8125 698.101562 C 314.242188 689.683594 315.273438 681.183594 315.910156 672.6875 Z M 332.042969 647.277344 C 353.105469 647.277344 370.195312 664.351562 370.195312 685.394531 C 370.195312 706.4375 353.105469 723.511719 332.042969 723.511719 L 307.328125 723.511719 C 308.441406 719.304688 309.472656 715.09375 310.347656 710.804688 L 332.042969 710.804688 C 346.03125 710.804688 357.476562 699.371094 357.476562 685.394531 C 357.476562 671.417969 346.03125 659.980469 332.042969 659.980469 L 316.785156 659.980469 L 317.660156 647.277344 Z M 303.511719 668.480469 C 301.527344 698.417969 294.769531 727.5625 283.324219 755.277344 L 177.300781 755.277344 C 165.9375 727.5625 159.101562 698.417969 157.113281 668.480469 L 154.414062 628.21875 L 306.136719 628.21875 Z M 182.785156 615.511719 L 110.144531 615.511719 L 143.367188 590.101562 L 185.089844 590.101562 Z M 38.136719 539.277344 L 180.800781 539.277344 L 183.976562 551.980469 L 34.957031 551.980469 Z M 38.136719 539.277344"/></g><path fill="#5E4915" d="M 176.429688 672.6875 C 172.929688 673.085938 170.386719 676.183594 170.785156 679.675781 C 171.898438 690.554688 173.644531 701.515625 176.03125 712.15625 C 176.667969 715.09375 179.289062 717.160156 182.230469 717.160156 C 182.707031 717.160156 183.105469 717.078125 183.582031 717 C 187 716.285156 189.144531 712.871094 188.429688 709.457031 C 186.203125 699.289062 184.535156 688.808594 183.421875 678.40625 C 183.023438 674.910156 179.925781 672.371094 176.429688 672.6875 Z M 176.429688 672.6875"/><path fill="#5E4915" d="M 185.328125 723.75 C 181.992188 724.703125 180.003906 728.277344 181.039062 731.613281 C 181.671875 733.753906 182.308594 735.980469 183.023438 738.125 C 183.898438 740.824219 186.363281 742.570312 189.066406 742.570312 C 189.699219 742.570312 190.335938 742.492188 190.972656 742.253906 C 194.308594 741.21875 196.136719 737.648438 195.105469 734.230469 C 194.46875 732.167969 193.832031 730.101562 193.199219 728.039062 C 192.164062 724.703125 188.667969 722.796875 185.328125 723.75 Z M 185.328125 723.75"/><path fill="#5E4915" d="M 243.03125 590.101562 C 246.527344 590.101562 249.386719 587.242188 249.386719 583.746094 C 249.386719 563.179688 255.191406 553.09375 261.230469 542.453125 C 267.90625 530.777344 274.820312 518.789062 274.820312 494.804688 C 274.820312 491.3125 271.960938 488.453125 268.460938 488.453125 C 264.964844 488.453125 262.105469 491.3125 262.105469 494.804688 C 262.105469 515.375 256.304688 525.457031 250.261719 536.101562 C 243.585938 547.773438 236.671875 559.765625 236.671875 583.746094 C 236.671875 587.242188 239.53125 590.101562 243.03125 590.101562 Z M 243.03125 590.101562"/><g clip-path="url(#G)"><path fill="#5E4915" d="M 281.179688 571.039062 C 284.675781 571.039062 287.539062 568.183594 287.539062 564.6875 C 287.539062 544.121094 293.339844 534.035156 299.378906 523.394531 C 306.054688 511.71875 312.96875 499.730469 312.96875 475.746094 C 312.96875 472.253906 310.109375 469.394531 306.613281 469.394531 C 303.113281 469.394531 300.253906 472.253906 300.253906 475.746094 C 300.253906 496.316406 294.453125 506.398438 288.410156 517.039062 C 281.734375 528.714844 274.820312 540.707031 274.820312 564.6875 C 274.820312 568.183594 277.683594 571.039062 281.179688 571.039062 Z M 281.179688 571.039062"/></g><path fill="#5E4915" d="M 71.359375 672.6875 C 71.359375 690.238281 85.585938 704.453125 103.148438 704.453125 C 120.714844 704.453125 134.941406 690.238281 134.941406 672.6875 C 134.941406 655.136719 120.714844 640.921875 103.148438 640.921875 C 85.585938 640.921875 71.359375 655.136719 71.359375 672.6875 Z M 122.222656 672.6875 C 122.222656 683.171875 113.640625 691.746094 103.148438 691.746094 C 92.660156 691.746094 84.074219 683.171875 84.074219 672.6875 C 84.074219 662.207031 92.660156 653.628906 103.148438 653.628906 C 113.640625 653.628906 122.222656 662.207031 122.222656 672.6875 Z M 122.222656 672.6875"/><g clip-path="url(#H)"><g clip-path="url(#I)"><g clip-path="url(#J)"><path fill="#5E4915" d="M 1186.792969 486.804688 L 1222.53125 557.453125 C 1222.855469 558.085938 1223.234375 558.683594 1223.671875 559.242188 C 1224.109375 559.800781 1224.597656 560.308594 1225.136719 560.773438 C 1225.675781 561.234375 1226.257812 561.640625 1226.875 561.988281 C 1227.492188 562.335938 1228.140625 562.621094 1228.816406 562.84375 C 1229.488281 563.066406 1230.179688 563.21875 1230.882812 563.304688 C 1231.589844 563.390625 1232.296875 563.40625 1233.003906 563.351562 C 1233.710938 563.300781 1234.410156 563.179688 1235.09375 562.988281 C 1235.777344 562.796875 1236.4375 562.542969 1237.070312 562.222656 L 1318.785156 520.886719 C 1319.421875 520.566406 1320.015625 520.183594 1320.574219 519.746094 C 1321.136719 519.308594 1321.644531 518.820312 1322.109375 518.28125 C 1322.574219 517.742188 1322.980469 517.160156 1323.328125 516.542969 C 1323.679688 515.921875 1323.964844 515.277344 1324.1875 514.601562 C 1324.410156 513.925781 1324.5625 513.234375 1324.648438 512.53125 C 1324.734375 511.824219 1324.753906 511.117188 1324.699219 510.410156 C 1324.648438 509.699219 1324.527344 509.003906 1324.339844 508.320312 C 1324.148438 507.632812 1323.894531 506.972656 1323.578125 506.339844 L 1296.585938 452.976562 C 1296.261719 452.34375 1295.882812 451.746094 1295.441406 451.1875 C 1295.003906 450.628906 1294.511719 450.121094 1293.972656 449.65625 C 1293.433594 449.195312 1292.851562 448.789062 1292.234375 448.441406 C 1291.613281 448.09375 1290.964844 447.808594 1290.289062 447.585938 C 1289.613281 447.363281 1288.921875 447.210938 1288.21875 447.128906 C 1287.511719 447.042969 1286.804688 447.027344 1286.09375 447.082031 C 1285.386719 447.136719 1284.691406 447.257812 1284.003906 447.449219 C 1283.320312 447.640625 1282.660156 447.898438 1282.027344 448.21875 L 1248.15625 465.351562 C 1247.289062 465.792969 1246.378906 466.105469 1245.425781 466.296875 C 1244.472656 466.484375 1243.511719 466.542969 1242.542969 466.46875 C 1241.574219 466.390625 1240.632812 466.1875 1239.71875 465.851562 C 1238.808594 465.515625 1237.957031 465.0625 1237.167969 464.492188 L 1230.082031 459.351562 C 1229.277344 458.765625 1228.410156 458.300781 1227.476562 457.957031 C 1226.542969 457.609375 1225.582031 457.398438 1224.589844 457.320312 C 1223.601562 457.242188 1222.617188 457.300781 1221.640625 457.496094 C 1220.667969 457.6875 1219.734375 458.011719 1218.851562 458.464844 L 1191.566406 472.265625 C 1190.929688 472.585938 1190.335938 472.964844 1189.773438 473.40625 C 1189.214844 473.84375 1188.703125 474.332031 1188.242188 474.871094 C 1187.777344 475.410156 1187.371094 475.988281 1187.023438 476.605469 C 1186.675781 477.226562 1186.390625 477.871094 1186.167969 478.546875 C 1185.945312 479.222656 1185.792969 479.914062 1185.707031 480.617188 C 1185.621094 481.324219 1185.605469 482.03125 1185.660156 482.738281 C 1185.714844 483.445312 1185.835938 484.144531 1186.027344 484.828125 C 1186.21875 485.511719 1186.472656 486.171875 1186.792969 486.804688 Z M 1255.769531 513.449219 C 1257.050781 512.785156 1258.402344 512.328125 1259.820312 512.082031 C 1261.242188 511.835938 1262.664062 511.808594 1264.09375 512 L 1251.160156 486.433594 C 1250.785156 485.695312 1250.625 484.910156 1250.675781 484.085938 C 1250.730469 483.257812 1250.992188 482.503906 1251.460938 481.820312 C 1251.929688 481.136719 1252.539062 480.617188 1253.289062 480.269531 C 1254.042969 479.921875 1254.828125 479.789062 1255.652344 479.871094 L 1268.375 481.148438 C 1268.671875 481.179688 1268.953125 481.265625 1269.214844 481.410156 C 1269.480469 481.550781 1269.707031 481.738281 1269.894531 481.972656 C 1270.085938 482.203125 1270.222656 482.464844 1270.308594 482.75 C 1270.394531 483.039062 1270.421875 483.332031 1270.390625 483.628906 C 1270.359375 483.929688 1270.273438 484.207031 1270.128906 484.472656 C 1269.988281 484.734375 1269.800781 484.960938 1269.566406 485.152344 C 1269.335938 485.339844 1269.074219 485.476562 1268.785156 485.5625 C 1268.5 485.648438 1268.207031 485.675781 1267.910156 485.644531 L 1255.199219 484.390625 C 1255.199219 484.390625 1271.699219 516.855469 1271.894531 517.238281 C 1274.539062 522.46875 1271.636719 529.316406 1265.394531 532.472656 C 1259.152344 535.628906 1251.898438 533.921875 1249.253906 528.691406 C 1246.597656 523.441406 1249.53125 516.605469 1255.769531 513.449219 Z M 1255.769531 513.449219"/></g></g></g><g clip-path="url(#K)"><g clip-path="url(#L)"><g clip-path="url(#M)"><path fill="#5E4915" d="M 1296.410156 424 C 1296.085938 423.367188 1295.707031 422.769531 1295.269531 422.210938 C 1294.828125 421.652344 1294.339844 421.140625 1293.800781 420.679688 C 1293.261719 420.21875 1292.683594 419.8125 1292.066406 419.464844 C 1291.445312 419.113281 1290.800781 418.828125 1290.125 418.609375 C 1289.449219 418.386719 1288.761719 418.234375 1288.054688 418.148438 C 1287.351562 418.0625 1286.644531 418.046875 1285.9375 418.097656 C 1285.226562 418.152344 1284.53125 418.273438 1283.847656 418.464844 C 1283.164062 418.652344 1282.503906 418.910156 1281.871094 419.226562 L 1247.980469 436.371094 C 1247.113281 436.8125 1246.207031 437.125 1245.253906 437.3125 C 1244.300781 437.5 1243.34375 437.554688 1242.375 437.476562 C 1241.40625 437.402344 1240.46875 437.195312 1239.558594 436.859375 C 1238.648438 436.523438 1237.800781 436.070312 1237.015625 435.503906 L 1229.902344 430.375 C 1229.101562 429.789062 1228.234375 429.320312 1227.300781 428.976562 C 1226.367188 428.632812 1225.40625 428.417969 1224.414062 428.339844 C 1223.421875 428.261719 1222.441406 428.320312 1221.464844 428.515625 C 1220.492188 428.707031 1219.558594 429.03125 1218.675781 429.484375 L 1191.410156 443.277344 C 1190.773438 443.597656 1190.175781 443.980469 1189.617188 444.417969 C 1189.058594 444.859375 1188.546875 445.347656 1188.082031 445.890625 C 1187.621094 446.429688 1187.214844 447.007812 1186.863281 447.628906 C 1186.515625 448.25 1186.230469 448.898438 1186.007812 449.574219 C 1185.785156 450.25 1185.632812 450.941406 1185.546875 451.648438 C 1185.460938 452.351562 1185.445312 453.0625 1185.496094 453.769531 C 1185.550781 454.480469 1185.671875 455.179688 1185.863281 455.863281 C 1186.050781 456.550781 1186.308594 457.210938 1186.628906 457.84375 L 1191.398438 467.277344 L 1216.808594 454.425781 C 1218.0625 453.785156 1219.382812 453.324219 1220.765625 453.050781 C 1222.148438 452.773438 1223.542969 452.691406 1224.949219 452.800781 C 1226.351562 452.914062 1227.71875 453.210938 1229.039062 453.699219 C 1230.363281 454.1875 1231.59375 454.847656 1232.734375 455.675781 L 1239.824219 460.816406 C 1240.273438 461.140625 1240.761719 461.402344 1241.285156 461.59375 C 1241.804688 461.785156 1242.34375 461.90625 1242.898438 461.949219 C 1243.453125 461.992188 1244.003906 461.960938 1244.550781 461.851562 C 1245.097656 461.746094 1245.617188 461.5625 1246.113281 461.3125 L 1279.984375 444.179688 C 1280.882812 443.722656 1281.816406 443.363281 1282.789062 443.089844 C 1283.761719 442.820312 1284.75 442.648438 1285.753906 442.570312 C 1286.757812 442.496094 1287.761719 442.515625 1288.761719 442.636719 C 1289.761719 442.757812 1290.742188 442.976562 1291.699219 443.289062 C 1292.65625 443.605469 1293.578125 444.007812 1294.453125 444.5 C 1295.332031 444.996094 1296.15625 445.570312 1296.921875 446.226562 C 1297.6875 446.882812 1298.378906 447.605469 1299.003906 448.398438 C 1299.625 449.191406 1300.167969 450.035156 1300.625 450.933594 L 1319.6875 488.621094 C 1320.171875 488.367188 1320.628906 488.066406 1321.058594 487.722656 C 1321.484375 487.378906 1321.875 486.996094 1322.230469 486.578125 C 1322.585938 486.160156 1322.894531 485.710938 1323.164062 485.230469 C 1323.429688 484.75 1323.648438 484.25 1323.820312 483.730469 C 1323.992188 483.207031 1324.113281 482.675781 1324.179688 482.128906 C 1324.25 481.585938 1324.265625 481.039062 1324.226562 480.492188 C 1324.191406 479.945312 1324.101562 479.40625 1323.960938 478.875 C 1323.820312 478.34375 1323.628906 477.832031 1323.390625 477.339844 Z M 1296.410156 424"/></g></g></g><g clip-path="url(#N)"><g clip-path="url(#O)"><g clip-path="url(#P)"><path fill="#5E4915" d="M 1263.351562 528.433594 C 1267.351562 526.410156 1269.375 522.292969 1267.855469 519.28125 C 1266.332031 516.273438 1261.8125 515.464844 1257.8125 517.488281 C 1253.792969 519.519531 1251.769531 523.640625 1253.292969 526.648438 C 1254.8125 529.65625 1259.332031 530.464844 1263.351562 528.433594 Z M 1263.351562 528.433594"/></g></g></g></svg>