<svg xmlns="http://www.w3.org/2000/svg" xmlns:xlink="http://www.w3.org/1999/xlink" width="1920" zoomAndPan="magnify" viewBox="0 0 1440 809.999993" height="1080" preserveAspectRatio="xMidYMid meet" version="1.0"><defs><filter x="0%" y="0%" width="100%" xlink:type="simple" xlink:actuate="onLoad" height="100%" id="id1" xlink:show="other"><feColorMatrix values="0 0 0 0 1 0 0 0 0 1 0 0 0 0 1 0 0 0 1 0" color-interpolation-filters="sRGB"/></filter><mask id="id2"><g filter="url(#id1)"><rect x="-144" width="1728" fill="rgb(0%, 0%, 0%)" y="-80.999999" height="971.999992" fill-opacity="0.1686"/></g></mask><clipPath id="id3"><path d="M 0.71875 0 L 720 0 L 720 810 L 0.71875 810 Z M 0.71875 0 " clip-rule="nonzero"/></clipPath><clipPath id="id4"><rect x="0" width="720" y="0" height="810"/></clipPath><mask id="id5"><g filter="url(#id1)"><rect x="-144" width="1728" fill="rgb(0%, 0%, 0%)" y="-80.999999" height="971.999992" fill-opacity="0.1176"/></g></mask><clipPath id="id6"><path d="M 0.121094 0 L 645 0 L 645 810 L 0.121094 810 Z M 0.121094 0 " clip-rule="nonzero"/></clipPath><clipPath id="id7"><rect x="0" width="645" y="0" height="810"/></clipPath><mask id="id8"><g filter="url(#id1)"><rect x="-144" width="1728" fill="rgb(0%, 0%, 0%)" y="-80.999999" height="971.999992" fill-opacity="0.2"/></g></mask><clipPath id="id9"><path d="M 0.480469 0.839844 L 564 0.839844 L 564 753 L 0.480469 753 Z M 0.480469 0.839844 " clip-rule="nonzero"/></clipPath><clipPath id="id10"><rect x="0" width="564" y="0" height="753"/></clipPath><mask id="id11"><g filter="url(#id1)"><rect x="-144" width="1728" fill="rgb(0%, 0%, 0%)" y="-80.999999" height="971.999992" fill-opacity="0.2667"/></g></mask><clipPath id="id12"><path d="M 0.480469 0.160156 L 396 0.160156 L 396 604 L 0.480469 604 Z M 0.480469 0.160156 " clip-rule="nonzero"/></clipPath><clipPath id="id13"><rect x="0" width="396" y="0" height="604"/></clipPath><mask id="id14"><g filter="url(#id1)"><rect x="-144" width="1728" fill="rgb(0%, 0%, 0%)" y="-80.999999" height="971.999992" fill-opacity="0.1686"/></g></mask><clipPath id="id15"><path d="M 0 0.441406 L 502.800781 0.441406 L 502.800781 515.71875 L 0 515.71875 Z M 0 0.441406 " clip-rule="nonzero"/></clipPath><clipPath id="id16"><rect x="0" width="503" y="0" height="516"/></clipPath><mask id="id17"><g filter="url(#id1)"><rect x="-144" width="1728" fill="rgb(0%, 0%, 0%)" y="-80.999999" height="971.999992" fill-opacity="0.1176"/></g></mask><clipPath id="id18"><path d="M 0 0.601562 L 503.519531 0.601562 L 503.519531 485 L 0 485 Z M 0 0.601562 " clip-rule="nonzero"/></clipPath><clipPath id="id19"><rect x="0" width="504" y="0" height="486"/></clipPath><mask id="id20"><g filter="url(#id1)"><rect x="-144" width="1728" fill="rgb(0%, 0%, 0%)" y="-80.999999" height="971.999992" fill-opacity="0.2"/></g></mask><clipPath id="id21"><path d="M 0.0390625 0.480469 L 490 0.480469 L 490 460.320312 L 0.0390625 460.320312 Z M 0.0390625 0.480469 " clip-rule="nonzero"/></clipPath><clipPath id="id22"><rect x="0" width="491" y="0" height="461"/></clipPath><mask id="id23"><g filter="url(#id1)"><rect x="-144" width="1728" fill="rgb(0%, 0%, 0%)" y="-80.999999" height="971.999992" fill-opacity="0.2667"/></g></mask><clipPath id="id24"><path d="M 1 0.71875 L 316.519531 0.71875 L 316.519531 296.640625 L 1 296.640625 Z M 1 0.71875 " clip-rule="nonzero"/></clipPath><clipPath id="id25"><rect x="0" width="317" y="0" height="297"/></clipPath></defs><rect x="-144" width="1728" fill="rgb(100%, 100%, 100%)" y="-80.999999" height="971.999992" fill-opacity="1"/><rect x="-144" width="1728" fill="rgb(95.289612%, 73.728943%, 19.999695%)" y="-80.999999" height="971.999992" fill-opacity="1"/><rect x="-144" width="1728" fill="rgb(100%, 100%, 100%)" y="-80.999999" height="971.999992" fill-opacity="1"/><rect x="-144" width="1728" fill="rgb(95.289612%, 73.728943%, 19.999695%)" y="-80.999999" height="971.999992" fill-opacity="1"/><g mask="url(#id2)"><g transform="matrix(1, 0, 0, 1, 720, 0.000000000000039746)"><g clip-path="url(#id4)"><g clip-path="url(#id3)"><path fill="rgb(36.079407%, 28.239441%, 8.239746%)" d="M 877.003906 -8.109375 C 1074.769531 -8.109375 1195.167969 107.300781 1224.183594 242.234375 C 1247.679688 351.523438 1211.242188 473.617188 1107.398438 557.5625 C 1064.832031 591.980469 1014.679688 613.402344 961.582031 633.832031 C 788.121094 700.554688 796.890625 689.136719 681.824219 830.25 C 504.664062 1047.515625 131.601562 971.332031 30.578125 727.496094 C -29.683594 582.050781 -11.425781 384.511719 207.597656 194.675781 C 344.601562 75.929688 264.597656 -134.308594 466.058594 -187.6875 C 521.65625 -202.425781 582.5625 -196.53125 626.484375 -164.058594 C 698.125 -111.078125 728.289062 -8.109375 877.003906 -8.109375 " fill-opacity="1" fill-rule="evenodd"/></g></g></g></g><g mask="url(#id5)"><g transform="matrix(1, 0, 0, 1, 795, 0.000000000000039746)"><g clip-path="url(#id7)"><g clip-path="url(#id6)"><path fill="rgb(36.079407%, 28.239441%, 8.239746%)" d="M 824.480469 106.617188 C 1010.507812 106.617188 1123.753906 215.121094 1151.050781 341.972656 C 1173.152344 444.714844 1138.878906 559.5 1041.195312 638.421875 C 1001.15625 670.777344 953.980469 690.917969 904.035156 710.121094 C 740.871094 772.847656 749.121094 762.117188 640.886719 894.777344 C 474.242188 1099.035156 123.328125 1027.414062 28.300781 798.179688 C -28.382812 661.441406 -11.210938 475.730469 194.808594 297.265625 C 323.683594 185.625 248.429688 -12.023438 437.925781 -62.203125 C 490.226562 -76.0625 547.519531 -70.519531 588.832031 -39.992188 C 656.21875 9.816406 684.589844 106.617188 824.480469 106.617188 " fill-opacity="1" fill-rule="evenodd"/></g></g></g></g><g mask="url(#id8)"><g transform="matrix(1, 0, 0, 1, 876, 57)"><g clip-path="url(#id10)"><g clip-path="url(#id9)"><path fill="rgb(36.079407%, 28.239441%, 8.239746%)" d="M 782.203125 167.996094 C 958.640625 167.996094 1066.050781 270.96875 1091.9375 391.359375 C 1112.898438 488.867188 1080.390625 597.800781 987.746094 672.699219 C 949.773438 703.40625 905.027344 722.519531 857.660156 740.746094 C 702.90625 800.277344 710.730469 790.09375 608.074219 915.996094 C 450.023438 1109.84375 117.199219 1041.871094 27.070312 824.316406 C -26.691406 694.546875 -10.402344 518.300781 184.996094 348.925781 C 307.226562 242.980469 235.851562 55.398438 415.578125 7.773438 C 465.183594 -5.375 519.519531 -0.117188 558.703125 28.855469 C 622.617188 76.125 649.527344 167.996094 782.203125 167.996094 " fill-opacity="1" fill-rule="evenodd"/></g></g></g></g><g mask="url(#id11)"><g transform="matrix(1, 0, 0, 1, 1044, 206)"><g clip-path="url(#id13)"><g clip-path="url(#id12)"><path fill="rgb(36.079407%, 28.239441%, 8.239746%)" d="M 503.902344 107.746094 C 617.5 107.746094 686.660156 173.992188 703.328125 251.445312 C 716.824219 314.171875 695.894531 384.253906 636.242188 432.441406 C 611.792969 452.195312 582.984375 464.492188 552.484375 476.21875 C 452.84375 514.515625 457.882812 507.964844 391.789062 588.960938 C 290.023438 713.667969 75.734375 669.941406 17.703125 529.980469 C -16.910156 446.496094 -6.425781 333.109375 119.386719 224.144531 C 198.082031 155.984375 152.128906 35.308594 267.847656 4.667969 C 299.785156 -3.789062 334.769531 -0.40625 360 18.234375 C 401.152344 48.640625 418.476562 107.746094 503.902344 107.746094 " fill-opacity="1" fill-rule="evenodd"/></g></g></g></g><g mask="url(#id14)"><g transform="matrix(1, 0, 0, 1, 0, 43)"><g clip-path="url(#id16)"><g clip-path="url(#id15)"><path fill="rgb(36.079407%, 28.239441%, 8.239746%)" d="M 344.648438 84.148438 C 432.921875 84.148438 486.660156 135.660156 499.613281 195.886719 C 510.097656 244.667969 493.835938 299.164062 447.484375 336.632812 C 428.484375 351.996094 406.097656 361.554688 382.398438 370.671875 C 304.976562 400.453125 308.890625 395.359375 257.53125 458.34375 C 178.457031 555.316406 11.945312 521.316406 -33.148438 412.480469 C -60.042969 347.5625 -51.894531 259.390625 45.863281 174.660156 C 107.015625 121.660156 71.308594 27.820312 161.226562 3.996094 C 186.042969 -2.585938 213.226562 0.046875 232.832031 14.542969 C 264.808594 38.1875 278.269531 84.148438 344.648438 84.148438 " fill-opacity="1" fill-rule="evenodd"/></g></g></g></g><g mask="url(#id17)"><g transform="matrix(1, 0, 0, 1, 0, 99)"><g clip-path="url(#id19)"><g clip-path="url(#id18)"><path fill="rgb(36.079407%, 28.239441%, 8.239746%)" d="M 354.683594 79.355469 C 437.714844 79.355469 488.261719 127.785156 500.445312 184.40625 C 510.308594 230.261719 495.011719 281.496094 451.410156 316.722656 C 433.539062 331.164062 412.484375 340.152344 390.191406 348.726562 C 317.363281 376.722656 321.046875 371.933594 272.734375 431.144531 C 198.355469 522.3125 41.726562 490.347656 -0.6875 388.027344 C -25.988281 326.996094 -18.324219 244.105469 73.632812 164.449219 C 131.152344 114.621094 97.566406 26.402344 182.148438 4.003906 C 205.488281 -2.183594 231.0625 0.292969 249.5 13.917969 C 279.578125 36.148438 292.242188 79.355469 354.683594 79.355469 " fill-opacity="1" fill-rule="evenodd"/></g></g></g></g><g mask="url(#id20)"><g transform="matrix(1, 0, 0, 1, 23, 156)"><g clip-path="url(#id22)"><g clip-path="url(#id21)"><path fill="rgb(36.079407%, 28.239441%, 8.239746%)" d="M 348.964844 75.191406 C 427.714844 75.191406 475.65625 121.152344 487.214844 174.890625 C 496.570312 218.410156 482.058594 267.03125 440.707031 300.464844 C 423.757812 314.171875 403.789062 322.699219 382.644531 330.835938 C 313.570312 357.40625 317.0625 352.859375 271.246094 409.058594 C 200.699219 495.578125 52.144531 465.242188 11.917969 368.136719 C -12.078125 310.214844 -4.808594 231.550781 82.40625 155.949219 C 136.960938 108.660156 105.105469 24.9375 185.324219 3.679688 C 207.464844 -2.191406 231.71875 0.15625 249.207031 13.089844 C 277.734375 34.1875 289.746094 75.191406 348.964844 75.191406 " fill-opacity="1" fill-rule="evenodd"/></g></g></g></g><g mask="url(#id23)"><g transform="matrix(1, 0, 0, 1, 97, 222)"><g clip-path="url(#id25)"><g clip-path="url(#id24)"><path fill="rgb(36.079407%, 28.239441%, 8.239746%)" d="M 225.734375 48.804688 C 276.4375 48.804688 307.304688 78.375 314.746094 112.945312 C 320.769531 140.941406 311.425781 172.222656 284.800781 193.730469 C 273.890625 202.546875 261.03125 208.035156 247.417969 213.269531 C 202.945312 230.363281 205.191406 227.441406 175.691406 263.59375 C 130.269531 319.253906 34.621094 299.738281 8.722656 237.265625 C -6.726562 200.003906 -2.046875 149.394531 54.105469 100.757812 C 89.234375 70.335938 68.722656 16.472656 120.371094 2.796875 C 134.628906 -0.976562 150.242188 0.53125 161.503906 8.851562 C 179.871094 22.425781 187.605469 48.804688 225.734375 48.804688 " fill-opacity="1" fill-rule="evenodd"/></g></g></g></g></svg>