<svg xmlns="http://www.w3.org/2000/svg" xmlns:xlink="http://www.w3.org/1999/xlink" width="1920" zoomAndPan="magnify" viewBox="0 0 1440 809.999993" height="1080" preserveAspectRatio="xMidYMid meet" version="1.0"><defs><filter x="0%" y="0%" width="100%" xlink:type="simple" xlink:actuate="onLoad" height="100%" id="id1" xlink:show="other"><feColorMatrix values="0 0 0 0 1 0 0 0 0 1 0 0 0 0 1 0 0 0 1 0" color-interpolation-filters="sRGB"/></filter><mask id="id2"><g filter="url(#id1)"><rect x="-144" width="1728" fill="rgb(0%, 0%, 0%)" y="-80.999999" height="971.999992" fill-opacity="0.1765"/></g></mask><clipPath id="id3"><path d="M 7 0 L 1440 0 L 1440 810 L 7 810 Z M 7 0 " clip-rule="nonzero"/></clipPath><clipPath id="id4"><path d="M 6 0 L 1440 0 L 1440 810 L 6 810 Z M 6 0 " clip-rule="nonzero"/></clipPath><clipPath id="id5"><path d="M 0 30 L 1440 30 L 1440 810 L 0 810 Z M 0 30 " clip-rule="nonzero"/></clipPath><clipPath id="id6"><path d="M 0 77 L 1436 77 L 1436 810 L 0 810 Z M 0 77 " clip-rule="nonzero"/></clipPath><clipPath id="id7"><path d="M 0 117 L 1420 117 L 1420 810 L 0 810 Z M 0 117 " clip-rule="nonzero"/></clipPath><clipPath id="id8"><path d="M 425 469 L 695 469 L 695 810 L 425 810 Z M 425 469 " clip-rule="nonzero"/></clipPath><clipPath id="id9"><path d="M 770 723 L 803 723 L 803 810 L 770 810 Z M 770 723 " clip-rule="nonzero"/></clipPath><clipPath id="id10"><path d="M 767 721 L 806 721 L 806 810 L 767 810 Z M 767 721 " clip-rule="nonzero"/></clipPath><clipPath id="id11"><path d="M 770 723 L 842 723 L 842 810 L 770 810 Z M 770 723 " clip-rule="nonzero"/></clipPath><clipPath id="id12"><path d="M 914 771 L 996 771 L 996 810 L 914 810 Z M 914 771 " clip-rule="nonzero"/></clipPath><clipPath id="id13"><path d="M 911 769 L 998 769 L 998 810 L 911 810 Z M 911 769 " clip-rule="nonzero"/></clipPath><clipPath id="id14"><path d="M 1027 798 L 1083 798 L 1083 810 L 1027 810 Z M 1027 798 " clip-rule="nonzero"/></clipPath><clipPath id="id15"><path d="M 1206 0 L 1215 0 L 1215 94 L 1206 94 Z M 1206 0 " clip-rule="nonzero"/></clipPath><clipPath id="id16"><path d="M 1205 0 L 1216 0 L 1216 96 L 1205 96 Z M 1205 0 " clip-rule="nonzero"/></clipPath><clipPath id="id17"><path d="M 1210 0 L 1249 0 L 1249 65 L 1210 65 Z M 1210 0 " clip-rule="nonzero"/></clipPath><clipPath id="id18"><path d="M 849 0 L 901 0 L 901 87 L 849 87 Z M 849 0 " clip-rule="nonzero"/></clipPath><clipPath id="id19"><path d="M 927 0 L 978 0 L 978 47 L 927 47 Z M 927 0 " clip-rule="nonzero"/></clipPath><clipPath id="id20"><path d="M 1000 0 L 1051 0 L 1051 11 L 1000 11 Z M 1000 0 " clip-rule="nonzero"/></clipPath><clipPath id="id21"><path d="M 1069 0 L 1139 0 L 1139 238 L 1069 238 Z M 1069 0 " clip-rule="nonzero"/></clipPath><clipPath id="id22"><path d="M 1307 0 L 1317 0 L 1317 94 L 1307 94 Z M 1307 0 " clip-rule="nonzero"/></clipPath><clipPath id="id23"><path d="M 1306 0 L 1318 0 L 1318 95 L 1306 95 Z M 1306 0 " clip-rule="nonzero"/></clipPath><clipPath id="id24"><rect x="0" width="1440" y="0" height="810"/></clipPath></defs><rect x="-144" width="1728" fill="rgb(100%, 100%, 100%)" y="-80.999999" height="971.999992" fill-opacity="1"/><rect x="-144" width="1728" fill="rgb(100%, 100%, 100%)" y="-80.999999" height="971.999992" fill-opacity="1"/><rect x="-144" width="1728" fill="rgb(95.289612%, 73.728943%, 19.999695%)" y="-80.999999" height="971.999992" fill-opacity="1"/><g mask="url(#id2)"><g transform="matrix(1, 0, 0, 1, 0, 0.000000000000039746)"><g clip-path="url(#id24)"><g clip-path="url(#id3)"><path fill="rgb(0%, 0%, 0%)" d="M 788.179688 -29.949219 C 724.273438 -12.203125 677.96875 23.199219 650.566406 75.273438 C 588.886719 192.480469 687.457031 253.332031 801.582031 323.800781 C 901.441406 385.453125 1014.617188 455.332031 1036.4375 577.515625 C 1053.953125 675.613281 1001.097656 755.105469 891.4375 795.605469 C 759.230469 844.421875 553.707031 824.808594 433.203125 692.289062 C 308.539062 555.175781 328.84375 455.179688 345.171875 374.835938 C 354.890625 326.949219 363.292969 285.589844 338.625 247.640625 C 273.464844 147.425781 21.726562 154.542969 11.042969 154.894531 C 9.203125 154.953125 7.769531 156.277344 7.84375 157.859375 C 7.910156 159.433594 9.460938 160.660156 11.296875 160.597656 C 13.875 160.511719 269.636719 153.253906 332.804688 250.417969 C 356.328125 286.605469 348.117188 327.035156 338.605469 373.859375 C 322.0625 455.3125 301.472656 556.6875 427.960938 695.792969 C 550.503906 830.574219 759.574219 850.511719 894.070312 800.839844 C 1005.082031 759.84375 1060.757812 676.035156 1043.011719 576.652344 C 1020.777344 452.101562 906.398438 381.480469 805.476562 319.167969 C 693.710938 250.167969 597.191406 190.578125 656.632812 77.617188 C 683.234375 27.070312 728.179688 -7.292969 790.230469 -24.523438 C 1028.824219 -90.773438 1449.929688 113.929688 1454.160156 116.003906 C 1455.75 116.785156 1457.785156 116.316406 1458.695312 114.945312 C 1459.609375 113.582031 1459.0625 111.839844 1457.464844 111.054688 C 1456.402344 110.535156 1349.714844 58.394531 1214.722656 15.191406 C 1089.859375 -24.757812 914.507812 -65.027344 788.179688 -29.949219 Z M 788.179688 -29.949219 " fill-opacity="1" fill-rule="nonzero"/></g><g clip-path="url(#id4)"><path fill="rgb(0%, 0%, 0%)" d="M 768.109375 -2.824219 C 707.425781 12.566406 663.398438 45.554688 637.25 95.238281 C 575.957031 211.726562 683.203125 272.621094 807.382812 343.125 C 916.925781 405.320312 1041.089844 475.816406 1063.0625 598.90625 C 1080.332031 695.617188 1026.425781 776.511719 915.1875 820.847656 C 840.664062 850.550781 746.847656 859.257812 657.78125 844.730469 C 558.9375 828.601562 472.609375 786.699219 408.117188 723.535156 C 276.089844 594.226562 297.066406 485.59375 313.914062 398.292969 C 324.140625 345.324219 332.972656 299.578125 303.496094 263.097656 C 243.253906 188.523438 18.953125 191.804688 9.433594 191.980469 C 7.59375 192.011719 6.136719 193.316406 6.175781 194.890625 C 6.21875 196.46875 7.734375 197.71875 9.574219 197.679688 C 11.875 197.640625 239.816406 194.289062 298.027344 266.339844 C 325.960938 300.925781 317.335938 345.617188 307.34375 397.367188 C 290.261719 485.84375 269.007812 595.953125 403.113281 727.296875 C 468.582031 791.417969 556.21875 833.964844 656.539062 850.332031 C 748.269531 865.296875 841.121094 856.660156 918.003906 826.023438 C 971.011719 804.890625 1013.050781 774.097656 1039.566406 736.964844 C 1068.703125 696.167969 1078.824219 649.425781 1069.644531 598.042969 C 1047.21875 472.457031 921.757812 401.21875 811.058594 338.367188 C 689.40625 269.300781 584.347656 209.648438 643.324219 97.585938 C 668.636719 49.484375 711.25 17.546875 769.992188 2.652344 C 1012.203125 -58.761719 1457.859375 184.777344 1462.332031 187.242188 C 1463.875 188.097656 1465.941406 187.714844 1466.933594 186.386719 C 1467.921875 185.066406 1467.480469 183.300781 1465.929688 182.445312 C 1464.808594 181.824219 1351.929688 119.847656 1210.371094 66.335938 C 1079.429688 16.832031 896.40625 -35.34375 768.109375 -2.824219 Z M 768.109375 -2.824219 " fill-opacity="1" fill-rule="nonzero"/></g><g clip-path="url(#id5)"><path fill="rgb(0%, 0%, 0%)" d="M 737.121094 38.257812 C 683.003906 50.503906 643.269531 77.792969 619 119.386719 C 588.980469 170.839844 595.984375 214.902344 641.058594 258.027344 C 680.785156 296.050781 745.582031 328.78125 814.183594 363.4375 C 941.644531 427.828125 1086.113281 500.8125 1099.65625 627.261719 C 1111.578125 738.570312 1044.46875 829.585938 915.546875 876.976562 C 832.851562 907.371094 734.824219 915.617188 639.519531 900.199219 C 536.769531 883.578125 448.699219 841.722656 384.820312 779.164062 C 252.601562 649.667969 271.207031 533.398438 286.152344 439.972656 C 295.160156 383.710938 302.925781 335.128906 273.542969 298.75 C 213.261719 224.128906 8.042969 232.933594 -0.664062 233.347656 C -2.5 233.433594 -3.90625 234.777344 -3.804688 236.351562 C -3.703125 237.925781 -2.128906 239.128906 -0.296875 239.042969 C 1.800781 238.945312 209.894531 229.996094 268.066406 302.003906 C 295.980469 336.550781 288.371094 384.117188 279.558594 439.191406 C 264.425781 533.769531 245.589844 651.472656 379.808594 782.921875 C 444.671875 846.453125 534.058594 888.945312 638.285156 905.804688 C 734.875 921.433594 834.273438 913.058594 918.164062 882.21875 C 1049.921875 833.789062 1118.484375 740.671875 1106.285156 626.742188 C 1092.433594 497.378906 946.398438 423.609375 817.5625 358.527344 C 680.53125 289.300781 562.191406 229.515625 624.953125 121.9375 C 648.328125 81.878906 686.632812 55.585938 738.808594 43.773438 C 979.863281 -10.777344 1447.59375 255.832031 1452.292969 258.527344 C 1453.820312 259.40625 1455.882812 259.058594 1456.90625 257.746094 C 1457.929688 256.445312 1457.523438 254.667969 1455.996094 253.796875 C 1454.824219 253.117188 1336.382812 185.316406 1189.484375 125.195312 C 1053.59375 69.585938 864.8125 9.355469 737.121094 38.257812 Z M 737.121094 38.257812 " fill-opacity="1" fill-rule="nonzero"/></g><g clip-path="url(#id6)"><path fill="rgb(0%, 0%, 0%)" d="M 687.703125 83.523438 C 646.367188 92.960938 616.527344 113.675781 599.003906 145.109375 C 536.707031 256.859375 678.035156 319.113281 827.660156 385.011719 C 972.660156 448.882812 1137.007812 521.273438 1144.585938 649.96875 C 1152.039062 776.703125 1072.632812 878.414062 926.734375 929.023438 C 835.082031 960.816406 727.019531 969.148438 622.453125 952.476562 C 513.386719 935.09375 418.355469 891.273438 354.863281 829.082031 C 222.339844 699.289062 235.503906 578.511719 246.082031 481.460938 C 252.402344 423.515625 257.855469 373.472656 228.605469 337.257812 C 168.261719 262.5625 1.253906 276.921875 -5.824219 277.570312 C -7.65625 277.738281 -8.980469 279.144531 -8.78125 280.710938 C -8.585938 282.28125 -6.945312 283.410156 -5.121094 283.246094 C -3.425781 283.089844 165.042969 268.597656 223.128906 340.511719 C 251.003906 375.011719 245.648438 424.09375 239.457031 480.929688 C 228.757812 579.066406 215.445312 701.195312 349.851562 832.839844 C 414.320312 895.988281 510.703125 940.46875 621.234375 958.089844 C 727.03125 974.953125 836.417969 966.507812 929.234375 934.3125 C 1077.925781 882.738281 1158.835938 778.992188 1151.230469 649.679688 C 1143.460938 517.703125 977.304688 444.515625 830.699219 379.941406 C 677.671875 312.535156 545.503906 254.316406 605.007812 147.5625 C 621.648438 117.714844 650.042969 98.023438 689.414062 89.039062 C 912.71875 38.085938 1425.460938 339.609375 1430.617188 342.660156 C 1432.128906 343.554688 1434.199219 343.230469 1435.246094 341.933594 C 1436.292969 340.636719 1435.914062 338.859375 1434.398438 337.964844 C 1433.113281 337.199219 1303.285156 260.582031 1147.332031 191.308594 C 937.472656 98.082031 782.832031 61.820312 687.703125 83.523438 Z M 687.703125 83.523438 " fill-opacity="1" fill-rule="nonzero"/></g><g clip-path="url(#id7)"><path fill="rgb(0%, 0%, 0%)" d="M 647.488281 122.367188 C 612.160156 130.25 586.882812 147.996094 572.355469 175.101562 C 557.425781 202.9375 555.515625 228.320312 566.496094 252.714844 C 596.582031 319.507812 719.742188 364.558594 850.132812 412.25 C 1019.21875 474.097656 1194.054688 538.046875 1194.511719 655.535156 C 1195.128906 817.578125 1103.003906 936.746094 935.09375 991.082031 C 836.039062 1023.140625 718.671875 1029.238281 604.617188 1008.253906 C 489.777344 987.128906 391.035156 940.71875 326.566406 877.578125 C 193.832031 747.574219 203.359375 622.332031 211.019531 521.699219 C 215.5625 462.003906 219.484375 410.441406 190.324219 374.351562 C 129.878906 299.523438 -22.855469 322.996094 -24.390625 323.242188 C -26.199219 323.539062 -27.390625 325.023438 -27.058594 326.570312 C -26.714844 328.121094 -24.980469 329.144531 -23.171875 328.851562 C -21.675781 328.617188 126.867188 305.816406 184.851562 377.59375 C 212.691406 412.058594 208.835938 462.695312 204.375 521.328125 C 196.636719 623.011719 187.007812 749.554688 321.558594 881.339844 C 386.960938 945.394531 486.992188 992.449219 603.222656 1013.832031 C 718.507812 1035.039062 837.207031 1028.863281 937.449219 996.421875 C 1108.144531 941.179688 1201.804688 820.109375 1201.167969 655.515625 C 1200.695312 534.269531 1023.8125 469.578125 852.746094 407.003906 C 723.683594 359.796875 601.78125 315.207031 572.707031 250.660156 C 562.40625 227.78125 564.265625 203.84375 578.402344 177.480469 C 592.058594 152.003906 615.867188 135.324219 649.164062 127.890625 C 863.230469 80.109375 1408.425781 419.058594 1413.90625 422.488281 C 1415.390625 423.421875 1417.472656 423.140625 1418.554688 421.871094 C 1419.640625 420.597656 1419.3125 418.8125 1417.828125 417.882812 C 1416.453125 417.023438 1278.425781 330.9375 1115.511719 251.925781 C 896.265625 145.582031 738.796875 101.988281 647.488281 122.367188 Z M 647.488281 122.367188 " fill-opacity="1" fill-rule="nonzero"/></g><g clip-path="url(#id8)"><path fill="rgb(0%, 0%, 0%)" d="M 555.90625 925.804688 C 563.128906 918.183594 529.59375 905 532.179688 873.566406 C 534.632812 843.789062 570.722656 817.015625 612.046875 831.15625 C 653.367188 845.289062 668.394531 898.183594 640.125 928.742188 C 611.863281 959.316406 553.960938 969.246094 499.113281 937.003906 C 444.25 904.765625 436.105469 818.695312 493.453125 776.371094 C 550.808594 734.035156 613.441406 715.621094 652.730469 662.582031 C 692.015625 609.53125 692.566406 518.851562 679.214844 491.691406 C 665.882812 464.539062 637.167969 454.207031 598.796875 505.667969 C 560.441406 557.121094 572.210938 637.40625 575.539062 700.769531 C 578.878906 764.136719 589.910156 928.277344 591.382812 978.921875 C 592.882812 1029.59375 599.179688 1083.109375 563.972656 1099.78125 C 528.757812 1116.457031 500.863281 1105.117188 492.164062 1093.828125 C 483.445312 1082.546875 489.421875 1078.699219 502.535156 1079.214844 C 522.921875 1080.015625 545.996094 1060.726562 533.207031 1034.191406 C 519.59375 1005.964844 484.046875 1012.996094 463.800781 1025.707031 C 438.582031 1041.523438 431.355469 1101.171875 493.972656 1117.605469 C 552.65625 1133 606.863281 1108.445312 609.273438 1042.375 C 611.667969 976.871094 587.410156 716.972656 584.71875 677.507812 C 582.027344 638.039062 584.710938 586.1875 613.070312 551.089844 C 641.425781 515.984375 674.316406 521.152344 670.234375 549.574219 C 666.167969 578.011719 647.34375 619.375 577.207031 662.972656 C 507.0625 706.570312 451.285156 747.375 434.058594 791.210938 C 416.828125 835.050781 422.292969 901.503906 474.730469 940.269531 C 527.1875 979.011719 633.542969 984.097656 676.4375 925.25 C 719.351562 866.40625 681.535156 799.394531 620.667969 787.398438 C 562.140625 775.875 511.820312 808.109375 504.757812 847.511719 C 495.207031 900.792969 549.597656 932.453125 555.90625 925.804688 Z M 555.90625 925.804688 " fill-opacity="1" fill-rule="nonzero"/></g><g clip-path="url(#id9)"><path fill="rgb(0%, 0%, 0%)" d="M 802.953125 975.875 L 775.890625 725.984375 C 775.710938 724.640625 774.253906 723.660156 772.707031 723.828125 C 771.125 723.980469 769.992188 725.214844 770.175781 726.554688 L 797.246094 976.441406 C 797.425781 977.804688 798.835938 978.773438 800.425781 978.617188 C 802.011719 978.46875 803.144531 977.226562 802.953125 975.875 Z M 802.953125 975.875 " fill-opacity="1" fill-rule="nonzero"/></g><g clip-path="url(#id10)"><path fill="rgb(0%, 0%, 0%)" d="M 805.394531 975.683594 L 778.355469 725.789062 C 778.183594 724.53125 777.472656 723.445312 776.339844 722.679688 C 775.21875 721.90625 773.824219 721.574219 772.410156 721.726562 C 771.019531 721.855469 769.746094 722.460938 768.855469 723.410156 C 767.96875 724.375 767.558594 725.566406 767.71875 726.792969 C 767.707031 726.753906 794.777344 976.648438 794.777344 976.648438 C 794.953125 977.910156 795.671875 978.992188 796.78125 979.769531 C 797.90625 980.511719 799.292969 980.855469 800.714844 980.710938 C 802.125 980.578125 803.398438 979.972656 804.28125 979.011719 C 805.183594 978.035156 805.574219 976.839844 805.394531 975.683594 Z M 800.492188 976.136719 C 800.515625 976.246094 800.457031 976.335938 800.425781 976.378906 C 800.371094 976.433594 800.289062 976.492188 800.148438 976.515625 C 800.023438 976.515625 799.925781 976.492188 799.84375 976.445312 C 799.757812 976.386719 799.710938 976.308594 799.699219 976.207031 C 799.710938 976.25 772.636719 726.355469 772.636719 726.355469 C 772.613281 726.191406 772.671875 726.101562 772.710938 726.046875 C 772.792969 725.980469 772.871094 725.9375 772.988281 725.933594 C 773.128906 725.914062 773.234375 725.96875 773.28125 725.992188 C 773.335938 726.046875 773.410156 726.117188 773.4375 726.222656 C 773.429688 726.171875 800.492188 976.074219 800.492188 976.136719 Z M 800.492188 976.136719 " fill-opacity="1" fill-rule="nonzero"/></g><g clip-path="url(#id11)"><path fill="rgb(0%, 0%, 0%)" d="M 829.851562 840.367188 C 829.214844 838.613281 836.605469 826.269531 834.410156 810.175781 C 832.210938 794.078125 822.65625 785.953125 808.070312 776.238281 C 798.011719 769.570312 783.332031 764.480469 779.484375 759.289062 C 775.632812 754.097656 767.21875 724.371094 772.214844 723.882812 C 777.210938 723.359375 778.441406 727.179688 781.132812 732.691406 C 783.828125 738.195312 797.664062 754.78125 810.675781 765.242188 C 823.675781 775.722656 837.914062 786.484375 840.785156 807.46875 C 843.65625 828.453125 831.019531 843.554688 829.851562 840.367188 Z M 829.851562 840.367188 " fill-opacity="1" fill-rule="nonzero"/></g><g clip-path="url(#id12)"><path fill="rgb(0%, 0%, 0%)" d="M 994.988281 893.597656 L 919.042969 772.78125 C 918.339844 771.6875 916.765625 771.28125 915.484375 771.878906 C 914.207031 772.476562 913.738281 773.828125 914.429688 774.925781 L 990.375 895.726562 C 991.0625 896.824219 992.65625 897.226562 993.929688 896.632812 C 995.203125 896.042969 995.683594 894.683594 994.988281 893.597656 Z M 994.988281 893.597656 " fill-opacity="1" fill-rule="nonzero"/></g><g clip-path="url(#id13)"><path fill="rgb(0%, 0%, 0%)" d="M 996.894531 892.75 L 920.941406 771.945312 C 919.652344 769.929688 916.765625 769.199219 914.460938 770.265625 C 913.347656 770.785156 912.53125 771.65625 912.164062 772.699219 C 911.804688 773.746094 911.949219 774.847656 912.546875 775.800781 C 912.527344 775.765625 988.464844 896.578125 988.464844 896.578125 C 989.75 898.585938 992.640625 899.316406 994.953125 898.242188 C 996.066406 897.722656 996.875 896.855469 997.253906 895.816406 C 997.605469 894.769531 997.476562 893.671875 996.894531 892.75 Z M 993.109375 894.453125 C 993.1875 894.589844 993.171875 894.707031 993.128906 894.769531 C 993.117188 894.847656 993.054688 894.957031 992.902344 895.03125 C 992.660156 895.140625 992.378906 895.070312 992.25 894.863281 C 992.273438 894.902344 916.320312 774.085938 916.320312 774.085938 C 916.226562 773.921875 916.246094 773.8125 916.273438 773.738281 C 916.289062 773.65625 916.355469 773.558594 916.503906 773.492188 C 916.746094 773.375 917.042969 773.449219 917.175781 773.65625 C 917.152344 773.621094 993.082031 894.4375 993.109375 894.453125 Z M 993.109375 894.453125 " fill-opacity="1" fill-rule="nonzero"/></g><g clip-path="url(#id14)"><path fill="rgb(0%, 0%, 0%)" d="M 1076.007812 801.066406 C 1085.816406 807.460938 1084.414062 823.167969 1072.882812 836.152344 C 1061.351562 849.136719 1044.054688 854.46875 1034.25 848.074219 C 1024.429688 841.675781 1025.835938 825.964844 1037.378906 812.980469 C 1048.902344 800 1066.207031 794.664062 1076.007812 801.066406 Z M 1076.007812 801.066406 " fill-opacity="1" fill-rule="nonzero"/></g><path fill="rgb(0%, 0%, 0%)" d="M 1078.113281 804.808594 L 1002.179688 684 C 1001.472656 682.90625 999.898438 682.5 998.613281 683.097656 C 997.335938 683.695312 996.867188 685.046875 997.566406 686.144531 L 1073.5 806.945312 C 1074.203125 808.035156 1075.796875 808.449219 1077.050781 807.847656 C 1078.332031 807.265625 1078.816406 805.898438 1078.113281 804.808594 Z M 1078.113281 804.808594 " fill-opacity="1" fill-rule="nonzero"/><path fill="rgb(0%, 0%, 0%)" d="M 1080.019531 803.96875 L 1004.074219 683.160156 C 1002.789062 681.144531 999.898438 680.414062 997.597656 681.480469 C 996.476562 682.003906 995.664062 682.871094 995.296875 683.914062 C 994.9375 684.960938 995.082031 686.0625 995.671875 687.015625 C 995.65625 686.988281 1071.589844 807.789062 1071.589844 807.789062 C 1072.875 809.808594 1075.777344 810.535156 1078.082031 809.460938 C 1079.195312 808.941406 1080.007812 808.074219 1080.378906 807.035156 C 1080.730469 805.988281 1080.609375 804.890625 1080.019531 803.96875 Z M 1076.242188 805.667969 C 1076.316406 805.804688 1076.308594 805.921875 1076.265625 805.988281 C 1076.25 806.070312 1076.191406 806.179688 1076.03125 806.246094 C 1075.789062 806.355469 1075.507812 806.285156 1075.386719 806.078125 C 1075.402344 806.113281 999.457031 685.300781 999.457031 685.300781 C 999.359375 685.140625 999.382812 685.023438 999.40625 684.957031 C 999.417969 684.867188 999.488281 684.773438 999.636719 684.710938 C 999.875 684.59375 1000.175781 684.664062 1000.308594 684.871094 C 1000.285156 684.835938 1076.210938 805.65625 1076.242188 805.667969 Z M 1076.242188 805.667969 " fill-opacity="1" fill-rule="nonzero"/><path fill="rgb(0%, 0%, 0%)" d="M 912.230469 771.875 L 995.296875 683.914062 L 1019.027344 714.328125 L 934.328125 799.222656 Z M 912.230469 771.875 " fill-opacity="1" fill-rule="nonzero"/><path fill="rgb(0%, 0%, 0%)" d="M 426.410156 746.347656 C 430 754.960938 420.316406 765.769531 404.789062 770.5 C 389.304688 775.246094 373.828125 772.105469 370.246094 763.5 C 366.671875 754.894531 376.335938 744.085938 391.84375 739.355469 C 407.359375 734.601562 422.824219 737.75 426.410156 746.347656 Z M 426.410156 746.347656 " fill-opacity="1" fill-rule="nonzero"/><path fill="rgb(0%, 0%, 0%)" d="M 427.140625 749.859375 L 444.074219 613.277344 C 444.175781 612.210938 443.226562 611.257812 441.992188 611.179688 C 440.738281 611.082031 439.640625 611.894531 439.53125 612.960938 L 422.621094 749.550781 C 422.515625 750.628906 423.4375 751.558594 424.691406 751.648438 C 425.949219 751.738281 427.046875 750.933594 427.140625 749.859375 Z M 427.140625 749.859375 " fill-opacity="1" fill-rule="nonzero"/><path fill="rgb(0%, 0%, 0%)" d="M 442.066406 610.300781 C 441.203125 610.238281 440.355469 610.472656 439.679688 610.960938 C 439.003906 611.445312 438.582031 612.132812 438.511719 612.886719 L 421.601562 749.453125 C 421.523438 750.234375 421.800781 750.964844 422.363281 751.535156 C 422.9375 752.105469 423.730469 752.460938 424.613281 752.515625 C 425.480469 752.589844 426.335938 752.347656 427.003906 751.859375 C 427.683594 751.371094 428.089844 750.683594 428.164062 749.929688 L 428.15625 749.953125 L 445.089844 613.367188 C 445.164062 612.601562 444.890625 611.867188 444.3125 611.292969 C 443.742188 610.710938 442.941406 610.359375 442.066406 610.300781 Z M 423.925781 750.398438 C 423.71875 750.1875 423.613281 749.90625 423.644531 749.621094 L 440.546875 613.050781 C 440.582031 612.746094 440.738281 612.484375 440.996094 612.296875 C 441.25 612.113281 441.570312 612.03125 441.910156 612.054688 C 442.238281 612.074219 442.535156 612.210938 442.753906 612.425781 C 442.96875 612.644531 443.078125 612.917969 443.050781 613.203125 L 426.121094 749.796875 C 426.09375 750.078125 425.945312 750.339844 425.695312 750.523438 C 425.433594 750.703125 425.113281 750.792969 424.78125 750.769531 C 424.441406 750.75 424.136719 750.617188 423.925781 750.398438 Z M 423.925781 750.398438 " fill-opacity="1" fill-rule="nonzero"/><path fill="rgb(0%, 0%, 0%)" d="M 465.203125 709.132812 C 465.027344 707.6875 472.996094 699.09375 474.203125 686.324219 C 475.414062 673.558594 469.46875 665.984375 459.929688 656.515625 C 453.34375 650.011719 442.871094 644.117188 440.828125 639.574219 C 438.789062 635.039062 437.640625 610.875 441.605469 611.15625 C 445.570312 611.421875 445.832031 614.542969 446.917969 619.183594 C 448.015625 623.800781 455.734375 638.5 463.941406 648.332031 C 472.117188 658.183594 481.203125 668.429688 479.640625 685.074219 C 478.066406 701.726562 465.539062 711.753906 465.203125 709.132812 Z M 465.203125 709.132812 " fill-opacity="1" fill-rule="nonzero"/><path fill="rgb(0%, 0%, 0%)" d="M 1076.328125 637.808594 C 1066.503906 639.746094 1061.390625 651.851562 1064.902344 664.855469 C 1068.378906 677.832031 1079.167969 686.789062 1088.988281 684.847656 C 1098.792969 682.90625 1103.917969 670.808594 1100.417969 657.824219 C 1096.933594 644.824219 1086.136719 635.882812 1076.328125 637.808594 Z M 1076.328125 637.808594 " fill-opacity="1" fill-rule="nonzero"/><path fill="rgb(0%, 0%, 0%)" d="M 1091.484375 643.730469 L 1186.097656 745.050781 C 1186.8125 745.851562 1186.625 747.023438 1185.691406 747.628906 C 1184.742188 748.25 1183.390625 748.082031 1182.675781 747.28125 L 1088.066406 645.957031 C 1087.34375 645.144531 1087.53125 644 1088.476562 643.378906 C 1089.417969 642.757812 1090.773438 642.917969 1091.484375 643.730469 Z M 1091.484375 643.730469 " fill-opacity="1" fill-rule="nonzero"/><path fill="rgb(0%, 0%, 0%)" d="M 1187.472656 746.527344 C 1187.582031 745.8125 1187.371094 745.105469 1186.851562 744.535156 L 1092.238281 643.21875 L 1092.261719 643.234375 C 1091.753906 642.664062 1091.019531 642.292969 1090.191406 642.203125 C 1089.363281 642.105469 1088.539062 642.289062 1087.894531 642.726562 C 1087.226562 643.152344 1086.800781 643.785156 1086.6875 644.488281 C 1086.578125 645.191406 1086.792969 645.890625 1087.3125 646.472656 L 1181.902344 747.78125 C 1182.410156 748.355469 1183.152344 748.71875 1183.988281 748.808594 C 1184.804688 748.90625 1185.613281 748.71875 1186.273438 748.292969 C 1186.933594 747.863281 1187.359375 747.242188 1187.472656 746.527344 Z M 1089.074219 644.039062 C 1089.320312 643.875 1089.628906 643.808594 1089.941406 643.835938 C 1090.242188 643.875 1090.523438 644.019531 1090.707031 644.234375 L 1185.328125 745.554688 C 1185.523438 745.765625 1185.59375 746.027344 1185.5625 746.300781 C 1185.511719 746.566406 1185.351562 746.808594 1185.105469 746.96875 C 1184.847656 747.136719 1184.542969 747.203125 1184.230469 747.164062 C 1183.914062 747.136719 1183.628906 746.996094 1183.429688 746.765625 L 1088.839844 645.449219 C 1088.648438 645.234375 1088.5625 644.972656 1088.601562 644.707031 C 1088.644531 644.4375 1088.804688 644.207031 1089.074219 644.039062 Z M 1089.074219 644.039062 " fill-opacity="1" fill-rule="nonzero"/><path fill="rgb(0%, 0%, 0%)" d="M 1145.96875 659.539062 C 1146.695312 660.765625 1158.144531 664.132812 1166.691406 673.769531 C 1175.238281 683.398438 1175 692.019531 1173.027344 703.722656 C 1171.648438 711.769531 1166.820312 721.027344 1167.894531 725.535156 C 1168.960938 730.035156 1182.410156 749.765625 1185.402344 747.816406 C 1188.394531 745.867188 1186.75 743.273438 1184.867188 739.113281 C 1182.984375 734.953125 1180.40625 719.882812 1181.085938 708.480469 C 1181.746094 697.078125 1182.890625 684.953125 1171.757812 672.390625 C 1160.609375 659.824219 1144.6875 657.308594 1145.96875 659.539062 Z M 1145.96875 659.539062 " fill-opacity="1" fill-rule="nonzero"/><path fill="rgb(0%, 0%, 0%)" d="M 310.929688 696.152344 C 310.9375 698.351562 309.777344 700.507812 307.585938 702.402344 C 303.402344 706.019531 296.203125 708.179688 288.34375 708.199219 C 280.488281 708.214844 273.277344 706.089844 269.0625 702.503906 C 266.851562 700.625 265.679688 698.453125 265.675781 696.265625 C 265.667969 694.078125 266.820312 691.90625 269.027344 690.015625 C 273.214844 686.402344 280.40625 684.246094 288.265625 684.214844 C 296.121094 684.207031 303.332031 686.332031 307.539062 689.929688 C 309.75 691.808594 310.925781 693.960938 310.929688 696.152344 Z M 288.257812 681.027344 C 279.425781 681.046875 271.25 683.5625 266.378906 687.761719 C 263.464844 690.261719 261.929688 693.21875 261.941406 696.277344 C 261.957031 699.335938 263.515625 702.277344 266.4375 704.773438 C 271.335938 708.933594 279.523438 711.417969 288.351562 711.398438 C 297.1875 711.375 305.355469 708.855469 310.222656 704.664062 C 313.132812 702.152344 314.671875 699.207031 314.660156 696.144531 C 314.640625 693.078125 313.097656 690.148438 310.175781 687.65625 C 305.277344 683.484375 297.078125 681 288.257812 681.027344 Z M 288.257812 681.027344 " fill-opacity="1" fill-rule="nonzero"/><path fill="rgb(0%, 0%, 0%)" d="M 288.265625 683.589844 C 280.203125 683.617188 272.816406 685.855469 268.507812 689.574219 C 266.167969 691.582031 264.933594 693.894531 264.945312 696.265625 C 264.945312 698.640625 266.199219 700.949219 268.546875 702.941406 C 272.894531 706.644531 280.292969 708.839844 288.347656 708.824219 C 296.410156 708.800781 303.792969 706.570312 308.105469 702.851562 C 308.90625 702.152344 309.574219 701.433594 310.109375 700.679688 C 311.136719 699.234375 311.660156 697.707031 311.65625 696.152344 C 311.652344 693.785156 310.410156 691.480469 308.054688 689.484375 C 303.71875 685.777344 296.320312 683.574219 288.265625 683.589844 Z M 269.582031 702.054688 C 267.507812 700.296875 266.40625 698.292969 266.40625 696.265625 C 266.40625 694.234375 267.488281 692.226562 269.546875 690.457031 C 273.589844 686.96875 280.582031 684.871094 288.265625 684.84375 C 295.941406 684.832031 302.949219 686.898438 307.019531 690.371094 C 309.09375 692.132812 310.1875 694.132812 310.191406 696.152344 L 310.191406 696.15625 C 310.203125 698.175781 309.121094 700.1875 307.066406 701.964844 C 303.027344 705.457031 296.023438 707.550781 288.34375 707.578125 C 280.664062 707.59375 273.652344 705.527344 269.582031 702.054688 Z M 269.582031 702.054688 " fill-opacity="1" fill-rule="nonzero"/><path fill="rgb(0%, 0%, 0%)" d="M 288.25 680.398438 C 279.226562 680.421875 270.855469 683.007812 265.859375 687.316406 C 264.839844 688.191406 263.980469 689.125 263.289062 690.09375 C 261.910156 692.027344 261.203125 694.121094 261.210938 696.277344 C 261.21875 699.507812 262.855469 702.601562 265.917969 705.222656 C 270.953125 709.503906 279.34375 712.042969 288.351562 712.023438 C 297.363281 712.003906 305.738281 709.421875 310.742188 705.105469 C 313.796875 702.464844 315.40625 699.367188 315.382812 696.136719 C 315.375 692.910156 313.753906 689.820312 310.683594 687.214844 C 305.652344 682.917969 297.261719 680.371094 288.25 680.398438 Z M 266.957031 704.324219 C 264.164062 701.945312 262.6875 699.164062 262.679688 696.277344 C 262.664062 693.378906 264.121094 690.585938 266.898438 688.203125 C 271.628906 684.121094 279.605469 681.675781 288.257812 681.652344 C 296.894531 681.625 304.894531 684.039062 309.65625 688.101562 C 312.441406 690.472656 313.914062 693.253906 313.921875 696.144531 C 313.945312 699.03125 312.484375 701.820312 309.710938 704.222656 C 304.964844 708.300781 296.984375 710.75 288.351562 710.765625 C 279.714844 710.789062 271.714844 708.386719 266.957031 704.324219 Z M 266.957031 704.324219 " fill-opacity="1" fill-rule="nonzero"/><path fill="rgb(0%, 0%, 0%)" d="M 313.941406 699.695312 L 359.421875 612.445312 C 359.847656 611.644531 359.421875 610.699219 358.476562 610.332031 C 357.542969 609.976562 356.4375 610.335938 356.019531 611.140625 L 310.539062 698.394531 C 310.125 699.195312 310.539062 700.144531 311.480469 700.5 C 312.417969 700.855469 313.527344 700.5 313.941406 699.695312 Z M 313.941406 699.695312 " fill-opacity="1" fill-rule="nonzero"/><path fill="rgb(0%, 0%, 0%)" d="M 358.78125 609.761719 C 358.140625 609.523438 357.4375 609.507812 356.789062 609.714844 C 356.136719 609.933594 355.628906 610.347656 355.347656 610.890625 L 309.871094 698.136719 C 309.589844 698.679688 309.570312 699.28125 309.816406 699.835938 C 310.066406 700.398438 310.550781 700.832031 311.1875 701.074219 C 312.492188 701.578125 314.03125 701.066406 314.609375 699.949219 L 360.089844 612.703125 C 360.671875 611.589844 360.089844 610.269531 358.78125 609.761719 Z M 311.195312 699.386719 C 311.074219 699.152344 311.085938 698.890625 311.207031 698.648438 L 356.683594 611.398438 C 356.816406 611.164062 357.03125 610.980469 357.316406 610.890625 C 357.59375 610.796875 357.90625 610.804688 358.179688 610.90625 C 358.75 611.125 359.011719 611.707031 358.757812 612.1875 L 313.269531 699.441406 C 313.019531 699.925781 312.355469 700.148438 311.773438 699.929688 C 311.503906 699.820312 311.292969 699.632812 311.195312 699.386719 Z M 311.195312 699.386719 " fill-opacity="1" fill-rule="nonzero"/><path fill="rgb(0%, 0%, 0%)" d="M 284.90625 373.035156 C 283.585938 374.921875 281.28125 376.253906 278.269531 376.902344 C 272.503906 378.144531 265.042969 376.800781 258.300781 373.328125 C 251.566406 369.863281 246.683594 364.84375 245.25 359.90625 C 244.484375 357.324219 244.789062 354.945312 246.105469 353.066406 C 247.429688 351.191406 249.722656 349.847656 252.75 349.207031 C 258.507812 347.972656 265.972656 349.3125 272.710938 352.773438 C 279.441406 356.25 284.328125 361.265625 285.753906 366.207031 C 286.515625 368.789062 286.21875 371.152344 284.90625 373.035156 Z M 274.632812 350.035156 C 267.0625 346.140625 258.542969 344.664062 251.847656 346.101562 C 247.839844 346.949219 244.742188 348.800781 242.910156 351.425781 C 241.074219 354.046875 240.628906 357.253906 241.628906 360.683594 C 243.300781 366.417969 248.8125 372.175781 256.382812 376.070312 C 263.949219 379.96875 272.460938 381.4375 279.164062 380.011719 C 283.164062 379.144531 286.257812 377.308594 288.09375 374.679688 C 289.9375 372.054688 290.378906 368.859375 289.390625 365.429688 C 287.710938 359.6875 282.199219 353.929688 274.632812 350.035156 Z M 274.632812 350.035156 " fill-opacity="1" fill-rule="nonzero"/><path fill="rgb(0%, 0%, 0%)" d="M 273.09375 352.238281 C 266.175781 348.683594 258.503906 347.320312 252.566406 348.597656 C 249.359375 349.277344 246.902344 350.714844 245.488281 352.746094 C 244.054688 354.777344 243.730469 357.304688 244.53125 360.058594 C 246.015625 365.152344 251.023438 370.3125 257.921875 373.871094 C 264.839844 377.421875 272.503906 378.789062 278.441406 377.515625 C 279.546875 377.277344 280.554688 376.957031 281.464844 376.550781 C 283.214844 375.769531 284.59375 374.6875 285.527344 373.359375 C 286.949219 371.332031 287.28125 368.804688 286.46875 366.050781 C 284.996094 360.960938 279.988281 355.792969 273.09375 352.238281 Z M 245.957031 359.757812 C 245.238281 357.332031 245.511719 355.128906 246.738281 353.390625 C 247.957031 351.65625 250.097656 350.414062 252.925781 349.816406 C 258.492188 348.621094 265.742188 349.925781 272.332031 353.3125 C 278.914062 356.703125 283.664062 361.578125 285.042969 366.355469 C 285.761719 368.78125 285.492188 370.980469 284.269531 372.714844 C 283.058594 374.449219 280.921875 375.683594 278.085938 376.296875 C 272.523438 377.492188 265.261719 376.183594 258.679688 372.792969 C 252.101562 369.40625 247.347656 364.527344 245.957031 359.757812 Z M 285.519531 373.359375 L 285.527344 373.359375 Z M 285.519531 373.359375 " fill-opacity="1" fill-rule="nonzero"/><path fill="rgb(0%, 0%, 0%)" d="M 275.007812 349.5 C 267.273438 345.519531 258.546875 344.019531 251.664062 345.492188 C 250.269531 345.789062 248.96875 346.203125 247.792969 346.730469 C 245.445312 347.769531 243.574219 349.25 242.277344 351.097656 C 240.339844 353.867188 239.871094 357.238281 240.910156 360.835938 C 242.632812 366.734375 248.273438 372.636719 256.003906 376.609375 C 263.726562 380.589844 272.449219 382.085938 279.34375 380.617188 C 283.550781 379.714844 286.800781 377.769531 288.722656 375.003906 C 290.664062 372.234375 291.144531 368.875 290.089844 365.28125 C 288.378906 359.375 282.730469 353.46875 275.007812 349.5 Z M 242.332031 360.535156 C 241.378906 357.261719 241.804688 354.226562 243.535156 351.746094 C 245.273438 349.261719 248.207031 347.519531 252.023438 346.714844 C 258.535156 345.316406 266.839844 346.757812 274.253906 350.574219 C 281.660156 354.378906 287.054688 359.988281 288.667969 365.578125 C 289.621094 368.84375 289.199219 371.878906 287.464844 374.355469 C 285.75 376.839844 282.808594 378.574219 278.988281 379.398438 C 272.46875 380.789062 264.15625 379.34375 256.761719 375.527344 C 249.351562 371.722656 243.964844 366.117188 242.332031 360.535156 Z M 242.332031 360.535156 " fill-opacity="1" fill-rule="nonzero"/><path fill="rgb(0%, 0%, 0%)" d="M 285.339844 377.402344 L 376.9375 322.90625 C 377.785156 322.410156 377.992188 321.414062 377.402344 320.679688 C 376.820312 319.957031 375.652344 319.777344 374.808594 320.285156 L 283.214844 374.78125 C 282.375 375.285156 282.164062 376.28125 282.746094 377.003906 C 283.335938 377.722656 284.492188 377.910156 285.339844 377.402344 Z M 285.339844 377.402344 " fill-opacity="1" fill-rule="nonzero"/><path fill="rgb(0%, 0%, 0%)" d="M 378.007812 320.320312 C 377.609375 319.832031 377.011719 319.507812 376.332031 319.402344 C 375.644531 319.300781 374.953125 319.425781 374.386719 319.761719 L 282.800781 374.265625 C 282.234375 374.601562 281.847656 375.113281 281.730469 375.699219 C 281.601562 376.289062 281.75 376.875 282.148438 377.363281 C 282.964844 378.371094 284.59375 378.621094 285.761719 377.914062 L 377.355469 323.421875 C 378.527344 322.730469 378.820312 321.34375 378.007812 320.320312 Z M 283.175781 375.925781 C 283.214844 375.667969 283.386719 375.449219 283.636719 375.292969 L 375.226562 320.796875 C 375.480469 320.652344 375.773438 320.59375 376.074219 320.640625 C 376.367188 320.679688 376.632812 320.828125 376.804688 321.035156 C 377.152344 321.476562 377.03125 322.089844 376.519531 322.390625 L 284.925781 376.890625 C 284.417969 377.195312 283.707031 377.085938 283.351562 376.640625 C 283.175781 376.4375 283.117188 376.179688 283.175781 375.925781 Z M 283.175781 375.925781 " fill-opacity="1" fill-rule="nonzero"/><path fill="rgb(0%, 0%, 0%)" d="M 253.445312 551.121094 C 244.796875 555.714844 245.191406 568.140625 254.332031 578.886719 C 263.453125 589.640625 277.863281 594.617188 286.5 590.023438 C 295.160156 585.4375 294.753906 573.003906 285.613281 562.253906 C 276.492188 551.511719 262.078125 546.527344 253.445312 551.121094 Z M 253.445312 551.121094 " fill-opacity="1" fill-rule="nonzero"/><path fill="rgb(0%, 0%, 0%)" d="M 285.410156 583.554688 L 352.710938 490.082031 C 353.328125 489.238281 354.617188 488.980469 355.601562 489.5 C 356.589844 490.039062 356.898438 491.136719 356.273438 491.988281 L 288.980469 585.445312 C 288.359375 586.292969 287.0625 586.546875 286.085938 586.023438 C 285.101562 585.507812 284.792969 584.394531 285.410156 583.554688 Z M 285.410156 583.554688 " fill-opacity="1" fill-rule="nonzero"/><path fill="rgb(0%, 0%, 0%)" d="M 283.476562 585.238281 C 283.714844 586.085938 284.320312 586.8125 285.175781 587.269531 C 286.964844 588.226562 289.324219 587.753906 290.457031 586.191406 C 290.457031 586.191406 357.753906 492.734375 357.738281 492.753906 C 358.265625 492.019531 358.441406 491.144531 358.207031 490.292969 C 357.972656 489.445312 357.371094 488.71875 356.503906 488.257812 C 354.730469 487.316406 352.378906 487.777344 351.230469 489.335938 L 283.933594 582.804688 C 283.410156 583.515625 283.253906 584.386719 283.476562 585.238281 Z M 354.152344 490.847656 C 354.261719 490.699219 354.519531 490.652344 354.707031 490.757812 C 354.816406 490.8125 354.863281 490.886719 354.875 490.960938 C 354.882812 491.015625 354.894531 491.105469 354.804688 491.234375 C 354.804688 491.234375 287.507812 584.707031 287.519531 584.675781 C 287.40625 584.832031 287.179688 584.882812 286.988281 584.78125 C 286.878906 584.722656 286.835938 584.632812 286.820312 584.574219 C 286.789062 584.511719 286.785156 584.425781 286.855469 584.316406 C 286.878906 584.300781 354.179688 490.828125 354.152344 490.847656 Z M 354.152344 490.847656 " fill-opacity="1" fill-rule="nonzero"/><path fill="rgb(0%, 0%, 0%)" d="M 227.347656 477.296875 C 219.167969 482.019531 219.421875 494.617188 227.921875 505.460938 C 236.425781 516.300781 249.949219 521.257812 258.136719 516.535156 C 266.332031 511.820312 266.066406 499.214844 257.5625 488.375 C 249.074219 477.539062 235.53125 472.574219 227.347656 477.296875 Z M 227.347656 477.296875 " fill-opacity="1" fill-rule="nonzero"/><path fill="rgb(0%, 0%, 0%)" d="M 256.78125 510.070312 L 324.082031 416.605469 C 324.691406 415.757812 325.980469 415.5 326.960938 416.019531 C 327.953125 416.558594 328.261719 417.652344 327.644531 418.496094 L 260.347656 511.964844 C 259.726562 512.8125 258.433594 513.070312 257.449219 512.539062 C 256.46875 512.027344 256.15625 510.914062 256.78125 510.070312 Z M 256.78125 510.070312 " fill-opacity="1" fill-rule="nonzero"/><path fill="rgb(0%, 0%, 0%)" d="M 254.847656 511.761719 C 255.082031 512.601562 255.683594 513.332031 256.550781 513.789062 C 258.332031 514.742188 260.6875 514.273438 261.820312 512.714844 C 261.820312 512.714844 329.121094 419.253906 329.105469 419.277344 C 329.636719 418.539062 329.8125 417.667969 329.578125 416.8125 C 329.335938 415.964844 328.742188 415.238281 327.875 414.777344 C 326.09375 413.832031 323.75 414.304688 322.601562 415.855469 L 255.296875 509.320312 C 254.777344 510.039062 254.625 510.90625 254.847656 511.761719 Z M 325.515625 417.378906 C 325.632812 417.210938 325.886719 417.167969 326.074219 417.273438 C 326.183594 417.328125 326.222656 417.40625 326.238281 417.476562 C 326.25 417.539062 326.261719 417.628906 326.171875 417.753906 C 326.171875 417.753906 258.871094 511.226562 258.886719 511.195312 C 258.777344 511.351562 258.546875 511.398438 258.359375 511.300781 C 258.242188 511.242188 258.203125 511.152344 258.1875 511.085938 C 258.15625 511.035156 258.152344 510.945312 258.230469 510.835938 C 258.242188 510.820312 325.539062 417.351562 325.515625 417.378906 Z M 325.515625 417.378906 " fill-opacity="1" fill-rule="nonzero"/><path fill="rgb(0%, 0%, 0%)" d="M 358.207031 490.292969 L 329.578125 416.8125 L 313.136719 435.488281 L 342.792969 506.335938 Z M 358.207031 490.292969 " fill-opacity="1" fill-rule="nonzero"/><path fill="rgb(0%, 0%, 0%)" d="M 331.59375 519.207031 L 300.25 450.972656 L 305.621094 449.164062 L 336.976562 517.390625 Z M 331.59375 519.207031 " fill-opacity="1" fill-rule="nonzero"/><path fill="rgb(0%, 0%, 0%)" d="M 322.046875 232.496094 C 321.210938 233.042969 237.5625 288.34375 194.453125 387.816406 C 193.816406 389.292969 194.699219 390.929688 196.414062 391.484375 C 198.140625 392.03125 200.050781 391.273438 200.691406 389.800781 C 243.105469 291.953125 325.253906 237.574219 326.078125 237.039062 C 327.542969 236.082031 327.828125 234.296875 326.710938 233.042969 C 325.601562 231.785156 323.507812 231.539062 322.046875 232.496094 Z M 322.046875 232.496094 " fill-opacity="1" fill-rule="nonzero"/><path fill="rgb(0%, 0%, 0%)" d="M 180.367188 192.691406 C 179.898438 192.371094 179.28125 192.277344 178.699219 192.421875 L 173.054688 193.867188 L 173.867188 173.734375 L 181.066406 171.804688 C 181.824219 171.589844 182.347656 171 182.375 170.328125 L 182.761719 160.449219 C 182.785156 159.9375 182.511719 159.441406 182.035156 159.121094 C 181.5625 158.816406 180.941406 158.714844 180.363281 158.859375 L 174.402344 160.382812 L 175.046875 144.472656 C 175.085938 143.585938 174.269531 142.84375 173.246094 142.8125 C 172.21875 142.785156 171.351562 143.480469 171.316406 144.359375 L 170.632812 161.347656 L 156.15625 165.046875 L 156.835938 148.464844 C 156.871094 147.578125 156.058594 146.839844 155.03125 146.808594 C 154 146.785156 153.132812 147.46875 153.097656 148.355469 L 152.390625 166.003906 L 146.449219 167.515625 C 145.679688 167.71875 145.136719 168.308594 145.121094 168.992188 L 144.695312 179.339844 C 144.671875 179.855469 144.953125 180.351562 145.433594 180.671875 C 145.914062 180.984375 146.539062 181.078125 147.121094 180.921875 L 151.839844 179.65625 L 151.039062 199.484375 L 144.78125 201.078125 C 144.007812 201.277344 143.472656 201.871094 143.449219 202.558594 L 143.035156 212.898438 C 143.011719 213.421875 143.28125 213.917969 143.761719 214.234375 C 144.25 214.542969 144.882812 214.644531 145.453125 214.488281 L 150.492188 213.136719 L 149.878906 228.296875 C 149.832031 229.175781 150.640625 229.917969 151.675781 229.945312 C 152.707031 229.976562 153.566406 229.289062 153.597656 228.402344 L 154.261719 212.117188 L 168.738281 208.222656 L 168.089844 224.296875 C 168.054688 225.175781 168.863281 225.917969 169.890625 225.949219 C 170.917969 225.980469 171.785156 225.292969 171.824219 224.40625 L 172.511719 207.207031 L 179.402344 205.359375 C 180.160156 205.15625 180.671875 204.566406 180.703125 203.886719 L 181.097656 194.011719 C 181.113281 193.496094 180.847656 193.007812 180.367188 192.691406 Z M 154.808594 198.519531 L 155.609375 178.640625 L 170.089844 174.746094 L 169.28125 194.828125 Z M 154.808594 198.519531 " fill-opacity="1" fill-rule="nonzero"/><path fill="rgb(0%, 0%, 0%)" d="M 229.382812 259.292969 C 238.144531 253.308594 236.488281 239.0625 225.695312 227.476562 C 214.917969 215.894531 199.074219 211.359375 190.332031 217.335938 C 181.570312 223.324219 183.214844 237.570312 194.015625 249.15625 C 204.800781 260.738281 220.636719 265.277344 229.382812 259.292969 Z M 229.382812 259.292969 " fill-opacity="1" fill-rule="nonzero"/><path fill="rgb(0%, 0%, 0%)" d="M 232.308594 256.507812 L 167.210938 365.191406 C 166.609375 366.203125 165.171875 366.589844 164 366.078125 C 162.828125 365.5625 162.359375 364.335938 162.96875 363.328125 L 228.0625 254.640625 C 228.667969 253.632812 230.105469 253.238281 231.273438 253.753906 C 232.449219 254.269531 232.917969 255.5 232.308594 256.507812 Z M 232.308594 256.507812 " fill-opacity="1" fill-rule="nonzero"/><path fill="rgb(0%, 0%, 0%)" d="M 232.050781 252.453125 C 230.050781 251.570312 227.578125 252.253906 226.558594 253.972656 L 161.457031 362.664062 C 160.421875 364.378906 161.226562 366.496094 163.21875 367.378906 C 165.226562 368.253906 167.703125 367.578125 168.726562 365.863281 L 233.832031 257.171875 C 234.855469 255.453125 234.0625 253.339844 232.050781 252.453125 Z M 165.695312 364.527344 C 165.527344 364.8125 165.113281 364.925781 164.773438 364.78125 C 164.445312 364.636719 164.316406 364.28125 164.484375 363.992188 L 229.589844 255.304688 C 229.757812 255.015625 230.171875 254.90625 230.503906 255.046875 C 230.839844 255.199219 230.96875 255.550781 230.800781 255.839844 Z M 165.695312 364.527344 " fill-opacity="1" fill-rule="nonzero"/><path fill="rgb(0%, 0%, 0%)" d="M 1031.960938 556.957031 C 1030.945312 558.269531 1031.359375 560.039062 1032.886719 560.910156 C 1033.542969 561.285156 1099.390625 598.472656 1180.789062 607.011719 C 1182.613281 607.207031 1184.269531 606.09375 1184.496094 604.523438 C 1184.71875 602.964844 1183.421875 601.539062 1181.597656 601.351562 C 1101.820312 592.976562 1037.21875 556.535156 1036.578125 556.164062 C 1035.050781 555.292969 1032.988281 555.644531 1031.960938 556.957031 Z M 1031.960938 556.957031 " fill-opacity="1" fill-rule="nonzero"/><path fill="rgb(0%, 0%, 0%)" d="M 689.003906 277.617188 C 688.796875 283.027344 680.722656 287.1875 670.964844 286.914062 C 661.207031 286.644531 653.464844 282.03125 653.675781 276.621094 C 653.878906 271.199219 661.957031 267.035156 671.71875 267.3125 C 681.476562 267.585938 689.21875 272.203125 689.003906 277.617188 Z M 689.003906 277.617188 " fill-opacity="1" fill-rule="nonzero"/><path fill="rgb(0%, 0%, 0%)" d="M 687.808594 279.484375 L 724.183594 216.386719 C 724.507812 215.816406 724.230469 215.128906 723.566406 214.847656 C 722.894531 214.566406 722.09375 214.796875 721.765625 215.378906 L 685.390625 278.460938 C 685.0625 279.039062 685.34375 279.730469 686.011719 280.003906 C 686.671875 280.285156 687.484375 280.054688 687.808594 279.484375 Z M 687.808594 279.484375 " fill-opacity="1" fill-rule="nonzero"/><path fill="rgb(0%, 0%, 0%)" d="M 688.78125 279.914062 L 725.15625 216.820312 C 725.753906 215.761719 725.253906 214.507812 724.046875 214.003906 C 723.46875 213.753906 722.792969 213.722656 722.179688 213.902344 C 721.5625 214.078125 721.066406 214.460938 720.78125 214.960938 C 720.789062 214.945312 684.40625 278.03125 684.40625 278.03125 C 683.816406 279.09375 684.324219 280.339844 685.527344 280.851562 C 686.109375 281.097656 686.773438 281.132812 687.398438 280.953125 C 688.015625 280.773438 688.507812 280.394531 688.78125 279.914062 Z M 688.78125 279.914062 " fill-opacity="1" fill-rule="nonzero"/><path fill="rgb(0%, 0%, 0%)" d="M 727.4375 316.914062 C 727.234375 322.203125 719.351562 326.265625 709.820312 325.996094 C 700.289062 325.730469 692.722656 321.222656 692.9375 315.9375 C 693.128906 310.644531 701.03125 306.578125 710.5625 306.851562 C 720.085938 307.117188 727.648438 311.628906 727.4375 316.914062 Z M 727.4375 316.914062 " fill-opacity="1" fill-rule="nonzero"/><path fill="rgb(0%, 0%, 0%)" d="M 721.742188 321.84375 L 764.0625 251.039062 C 764.378906 250.472656 764.109375 249.800781 763.460938 249.527344 C 762.804688 249.257812 762.019531 249.480469 761.699219 250.050781 L 719.375 320.847656 C 719.058594 321.40625 719.332031 322.078125 719.984375 322.355469 C 720.628906 322.628906 721.421875 322.402344 721.742188 321.84375 Z M 721.742188 321.84375 " fill-opacity="1" fill-rule="nonzero"/><path fill="rgb(0%, 0%, 0%)" d="M 722.691406 322.265625 L 765.007812 251.457031 C 765.59375 250.421875 765.105469 249.199219 763.929688 248.707031 C 763.355469 248.464844 762.707031 248.429688 762.105469 248.605469 C 761.503906 248.78125 761.015625 249.148438 760.738281 249.640625 C 760.746094 249.625 718.425781 320.429688 718.425781 320.429688 C 717.835938 321.460938 718.324219 322.679688 719.515625 323.175781 C 720.085938 323.417969 720.730469 323.453125 721.332031 323.28125 C 721.9375 323.097656 722.425781 322.738281 722.691406 322.265625 Z M 722.691406 322.265625 " fill-opacity="1" fill-rule="nonzero"/><path fill="rgb(0%, 0%, 0%)" d="M 755.183594 349.359375 C 751.941406 346.386719 746.449219 344.511719 740.488281 344.34375 C 734.535156 344.179688 728.90625 345.734375 725.4375 348.519531 C 723.230469 350.292969 722.015625 352.441406 721.929688 354.730469 C 721.84375 357.027344 722.890625 359.238281 724.960938 361.132812 C 728.203125 364.101562 733.695312 365.976562 739.640625 366.140625 C 745.601562 366.308594 751.230469 364.75 754.695312 361.972656 C 756.910156 360.199219 758.117188 358.046875 758.210938 355.757812 C 758.296875 353.46875 757.253906 351.253906 755.183594 349.359375 Z M 751.136719 352.605469 C 751.867188 353.269531 752.71875 354.332031 752.667969 355.609375 C 752.617188 356.875 751.6875 357.882812 750.910156 358.503906 C 748.535156 360.414062 744.289062 361.523438 739.832031 361.398438 C 735.375 361.277344 731.230469 359.929688 729.003906 357.886719 C 728.273438 357.222656 727.417969 356.164062 727.472656 354.890625 C 727.515625 353.617188 728.457031 352.609375 729.222656 351.976562 C 731.609375 350.070312 735.855469 348.960938 740.308594 349.089844 C 744.753906 349.214844 748.910156 350.5625 751.136719 352.605469 Z M 751.136719 352.605469 " fill-opacity="1" fill-rule="nonzero"/><path fill="rgb(0%, 0%, 0%)" d="M 756.242188 359.042969 L 801.695312 282.515625 C 801.976562 282.015625 801.738281 281.414062 801.160156 281.171875 C 800.574219 280.929688 799.878906 281.132812 799.59375 281.628906 L 754.136719 358.15625 C 753.851562 358.660156 754.089844 359.261719 754.675781 359.5 C 755.253906 359.746094 755.957031 359.546875 756.242188 359.042969 Z M 756.242188 359.042969 " fill-opacity="1" fill-rule="nonzero"/><path fill="rgb(0%, 0%, 0%)" d="M 757.082031 359.421875 L 802.539062 282.890625 C 803.0625 281.972656 802.625 280.878906 801.582031 280.4375 C 801.0625 280.222656 800.484375 280.191406 799.957031 280.351562 C 799.414062 280.507812 798.980469 280.835938 798.730469 281.269531 C 798.742188 281.257812 753.28125 357.785156 753.28125 357.785156 C 752.769531 358.707031 753.203125 359.792969 754.257812 360.238281 C 754.753906 360.449219 755.34375 360.480469 755.878906 360.324219 C 756.414062 360.167969 756.84375 359.839844 757.082031 359.421875 Z M 757.082031 359.421875 " fill-opacity="1" fill-rule="nonzero"/><path fill="rgb(0%, 0%, 0%)" d="M 724.046875 214.003906 L 802.710938 281.710938 L 793.046875 297.972656 L 714.292969 231.457031 Z M 724.046875 214.003906 " fill-opacity="1" fill-rule="nonzero"/><path fill="rgb(0%, 0%, 0%)" d="M 710.871094 239.648438 L 751.167969 272.78125 L 747.332031 276.203125 L 707.035156 243.078125 Z M 710.871094 239.648438 " fill-opacity="1" fill-rule="nonzero"/><path fill="rgb(0%, 0%, 0%)" d="M 761.699219 108.527344 C 765.257812 109.023438 767.75 111.175781 769.203125 112.90625 C 773.292969 117.757812 774.921875 125.699219 773.433594 133.632812 C 771.914062 141.671875 767.582031 148.597656 761.824219 152.164062 C 759.820312 153.410156 756.667969 154.792969 753.097656 154.300781 C 749.527344 153.8125 747.046875 151.65625 745.59375 149.933594 C 741.433594 145.003906 739.851562 137.25 741.371094 129.207031 C 742.875 121.160156 747.210938 114.234375 752.976562 110.667969 C 754.976562 109.425781 758.125 108.042969 761.699219 108.527344 Z M 734.246094 128.21875 C 732.429688 137.851562 734.472656 147.328125 739.746094 153.554688 C 742.964844 157.390625 747.1875 159.761719 751.949219 160.410156 C 756.707031 161.070312 761.585938 159.953125 766.058594 157.179688 C 773.335938 152.675781 778.75 144.234375 780.554688 134.613281 C 782.375 124.980469 780.308594 115.511719 775.0625 109.269531 C 771.832031 105.441406 767.605469 103.070312 762.835938 102.421875 C 758.09375 101.761719 753.210938 102.878906 748.730469 105.65625 C 741.472656 110.148438 736.042969 118.597656 734.246094 128.21875 Z M 734.246094 128.21875 " fill-opacity="1" fill-rule="nonzero"/><path fill="rgb(0%, 0%, 0%)" d="M 768.375 104.09375 L 641.972656 28.707031 C 640.898438 28.09375 639.441406 28.347656 638.738281 29.273438 C 638.027344 30.195312 638.324219 31.433594 639.402344 32.050781 L 765.808594 107.441406 C 766.882812 108.050781 768.328125 107.792969 769.042969 106.867188 C 769.753906 105.949219 769.453125 104.707031 768.375 104.09375 Z M 768.375 104.09375 " fill-opacity="1" fill-rule="nonzero"/><path fill="rgb(0%, 0%, 0%)" d="M 769.414062 102.824219 L 643.007812 27.433594 C 642.046875 26.882812 640.9375 26.707031 639.855469 26.898438 C 638.769531 27.09375 637.832031 27.625 637.226562 28.421875 C 636.613281 29.207031 636.402344 30.160156 636.621094 31.09375 C 636.847656 32.011719 637.476562 32.8125 638.410156 33.339844 C 638.371094 33.3125 764.785156 108.710938 764.785156 108.710938 C 765.738281 109.25 766.839844 109.441406 767.929688 109.246094 C 769.015625 109.050781 769.9375 108.515625 770.558594 107.71875 C 771.808594 106.082031 771.28125 103.882812 769.414062 102.824219 Z M 767.382812 105.386719 C 767.621094 105.523438 767.699219 105.808594 767.535156 106.019531 C 767.441406 106.152344 767.308594 106.199219 767.203125 106.214844 C 767.101562 106.230469 766.957031 106.238281 766.796875 106.144531 C 766.839844 106.167969 640.433594 30.777344 640.433594 30.777344 C 640.242188 30.660156 640.1875 30.542969 640.164062 30.464844 C 640.144531 30.382812 640.140625 30.261719 640.25 30.125 C 640.351562 29.984375 640.503906 29.941406 640.585938 29.929688 C 640.683594 29.914062 640.832031 29.90625 640.980469 29.988281 C 640.945312 29.972656 767.351562 105.359375 767.382812 105.386719 Z M 767.382812 105.386719 " fill-opacity="1" fill-rule="nonzero"/><path fill="rgb(0%, 0%, 0%)" d="M 753.289062 59.796875 C 751.664062 59.222656 746.578125 48.808594 733.738281 41.5625 C 720.894531 34.3125 709.988281 35.148438 695.324219 37.855469 C 685.210938 39.714844 673.832031 44.882812 668.039062 44.222656 C 662.253906 43.550781 636.261719 32.476562 638.519531 29.546875 C 640.769531 26.625 644.179688 27.953125 649.597656 29.410156 C 655.003906 30.859375 674.289062 32.164062 688.695312 30.703125 C 703.101562 29.25 718.367188 27.292969 735.109375 36.746094 C 751.855469 46.195312 756.210938 60.84375 753.289062 59.796875 Z M 753.289062 59.796875 " fill-opacity="1" fill-rule="nonzero"/><path fill="rgb(0%, 0%, 0%)" d="M 1203.894531 90.382812 C 1205.054688 92.644531 1204.445312 95.015625 1203.726562 96.605469 C 1201.703125 101.074219 1196.183594 105.460938 1189.316406 108.058594 C 1182.355469 110.683594 1175.039062 111.203125 1169.742188 109.441406 C 1167.890625 108.824219 1165.4375 107.613281 1164.269531 105.34375 C 1163.097656 103.074219 1163.707031 100.707031 1164.425781 99.125 C 1166.480469 94.582031 1171.871094 90.296875 1178.839844 87.671875 C 1185.796875 85.039062 1193.121094 84.519531 1198.425781 86.292969 C 1200.265625 86.902344 1202.722656 88.109375 1203.894531 90.382812 Z M 1176.511719 83.136719 C 1168.171875 86.292969 1161.628906 91.585938 1159.039062 97.332031 C 1157.441406 100.855469 1157.410156 104.320312 1158.980469 107.339844 C 1160.539062 110.363281 1163.53125 112.691406 1167.648438 114.058594 C 1174.347656 116.289062 1183.316406 115.734375 1191.648438 112.585938 C 1199.988281 109.441406 1206.519531 104.132812 1209.128906 98.398438 C 1210.722656 94.867188 1210.742188 91.410156 1209.179688 88.382812 C 1207.625 85.363281 1204.625 83.039062 1200.507812 81.664062 C 1193.820312 79.4375 1184.835938 79.988281 1176.511719 83.136719 Z M 1176.511719 83.136719 " fill-opacity="1" fill-rule="nonzero"/><g clip-path="url(#id15)"><path fill="rgb(0%, 0%, 0%)" d="M 1210.277344 92.296875 L 1214.378906 -13.277344 C 1214.386719 -14.164062 1213.558594 -14.890625 1212.53125 -14.894531 C 1211.488281 -14.902344 1210.648438 -14.195312 1210.636719 -13.308594 L 1206.53125 92.273438 C 1206.523438 93.164062 1207.355469 93.878906 1208.382812 93.886719 C 1209.417969 93.894531 1210.265625 93.179688 1210.277344 92.296875 Z M 1210.277344 92.296875 " fill-opacity="1" fill-rule="nonzero"/></g><g clip-path="url(#id16)"><path fill="rgb(0%, 0%, 0%)" d="M 1211.722656 92.339844 L 1215.824219 -13.238281 C 1215.839844 -14.023438 1215.496094 -14.746094 1214.878906 -15.285156 C 1214.25 -15.828125 1213.429688 -16.136719 1212.539062 -16.136719 C 1211.65625 -16.140625 1210.820312 -15.851562 1210.179688 -15.320312 C 1209.558594 -14.785156 1209.203125 -14.078125 1209.191406 -13.316406 C 1209.203125 -13.347656 1205.097656 92.238281 1205.097656 92.238281 C 1205.082031 93.015625 1205.410156 93.734375 1206.042969 94.28125 C 1206.664062 94.820312 1207.492188 95.121094 1208.382812 95.132812 C 1210.210938 95.140625 1211.703125 93.875 1211.722656 92.339844 Z M 1208.828125 92.285156 C 1208.828125 92.488281 1208.632812 92.652344 1208.402344 92.652344 C 1208.253906 92.652344 1208.160156 92.59375 1208.109375 92.542969 C 1208.046875 92.496094 1207.976562 92.402344 1207.976562 92.28125 C 1207.976562 92.3125 1212.089844 -13.261719 1212.089844 -13.261719 C 1212.09375 -13.425781 1212.160156 -13.507812 1212.214844 -13.558594 C 1212.269531 -13.601562 1212.371094 -13.65625 1212.511719 -13.65625 C 1212.671875 -13.65625 1212.777344 -13.585938 1212.820312 -13.546875 C 1212.871094 -13.496094 1212.941406 -13.417969 1212.941406 -13.292969 C 1212.941406 -13.320312 1208.832031 92.253906 1208.828125 92.285156 Z M 1208.828125 92.285156 " fill-opacity="1" fill-rule="nonzero"/></g><g clip-path="url(#id17)"><path fill="rgb(0%, 0%, 0%)" d="M 1238.4375 64.335938 C 1238.183594 63.152344 1244.125 55.695312 1244.226562 45.148438 C 1244.320312 34.59375 1238.917969 28.683594 1230.421875 21.417969 C 1224.554688 16.40625 1215.5625 12.105469 1213.5625 8.472656 C 1211.566406 4.855469 1208.941406 -14.925781 1212.214844 -14.902344 C 1215.484375 -14.875 1215.929688 -12.335938 1217.140625 -8.582031 C 1218.359375 -4.839844 1225.726562 6.828125 1233.140625 14.488281 C 1240.546875 22.148438 1248.71875 30.089844 1248.597656 43.839844 C 1248.476562 57.597656 1238.886719 66.476562 1238.4375 64.335938 Z M 1238.4375 64.335938 " fill-opacity="1" fill-rule="nonzero"/></g><g clip-path="url(#id18)"><path fill="rgb(0%, 0%, 0%)" d="M 899.015625 57.726562 L 855.496094 -39.464844 C 854.925781 -40.613281 853.195312 -41.214844 851.621094 -40.828125 C 850.839844 -40.636719 850.230469 -40.242188 849.867188 -39.714844 C 849.519531 -39.191406 849.464844 -38.605469 849.730469 -38.050781 C 849.726562 -38.066406 880.972656 31.703125 890.757812 53.5625 C 883.339844 52.398438 873.285156 54.863281 865.082031 60.40625 C 853.964844 67.910156 850.445312 78.164062 857.226562 83.320312 C 863.984375 88.476562 878.484375 86.582031 889.589844 79.078125 C 899.675781 72.265625 903.472656 63.203125 899.015625 57.726562 Z M 899.015625 57.726562 " fill-opacity="1" fill-rule="nonzero"/></g><g clip-path="url(#id19)"><path fill="rgb(0%, 0%, 0%)" d="M 975.964844 16.753906 L 933.625 -76.953125 C 933.035156 -78.140625 931.242188 -78.773438 929.613281 -78.363281 C 928.804688 -78.171875 928.167969 -77.765625 927.792969 -77.214844 C 927.425781 -76.671875 927.375 -76.054688 927.65625 -75.488281 C 927.648438 -75.503906 957.265625 -10.214844 967.410156 12.441406 C 959.71875 11.230469 949.300781 13.789062 940.792969 19.53125 C 929.277344 27.308594 925.632812 37.933594 932.660156 43.28125 C 939.671875 48.628906 954.679688 46.652344 966.1875 38.882812 C 976.644531 31.824219 980.585938 22.425781 975.964844 16.753906 Z M 975.964844 16.753906 " fill-opacity="1" fill-rule="nonzero"/></g><g clip-path="url(#id20)"><path fill="rgb(0%, 0%, 0%)" d="M 1048.800781 -20.117188 L 1008.308594 -117.207031 C 1007.707031 -118.4375 1005.847656 -119.078125 1004.171875 -118.667969 C 1003.34375 -118.460938 1002.679688 -118.042969 1002.304688 -117.476562 C 1001.921875 -116.921875 1001.871094 -116.285156 1002.160156 -115.703125 C 1002.160156 -115.71875 1029.542969 -47.90625 1039.984375 -24.5625 C 1032.0625 -25.808594 1021.332031 -23.171875 1012.5625 -17.257812 C 1000.695312 -9.246094 996.9375 1.707031 1004.175781 7.210938 C 1011.398438 12.71875 1026.878906 10.6875 1038.738281 2.679688 C 1049.503906 -4.589844 1053.566406 -14.273438 1048.800781 -20.117188 Z M 1048.800781 -20.117188 " fill-opacity="1" fill-rule="nonzero"/></g><path fill="rgb(0%, 0%, 0%)" d="M 1027.605469 149.648438 C 1022.460938 151.195312 1015.476562 150.503906 1008.898438 147.800781 C 1002.324219 145.097656 997.3125 140.855469 995.511719 136.453125 C 994.875 134.917969 994.386719 132.632812 995.582031 130.492188 C 996.785156 128.351562 999.179688 127.253906 1000.972656 126.710938 C 1006.113281 125.164062 1013.097656 125.855469 1019.679688 128.558594 C 1026.15625 131.21875 1031.28125 135.574219 1033.058594 139.910156 C 1033.695312 141.445312 1034.191406 143.734375 1032.988281 145.871094 C 1031.792969 148.015625 1029.394531 149.109375 1027.605469 149.648438 Z M 1029.4375 154.128906 C 1033.433594 152.925781 1036.390625 150.773438 1037.992188 147.925781 C 1039.589844 145.070312 1039.695312 141.757812 1038.292969 138.335938 C 1036.007812 132.773438 1029.945312 127.511719 1022.066406 124.28125 C 1014.203125 121.046875 1005.632812 120.273438 999.136719 122.234375 C 995.148438 123.429688 992.183594 125.578125 990.589844 128.4375 C 988.984375 131.292969 988.882812 134.605469 990.289062 138.027344 C 992.566406 143.59375 998.628906 148.84375 1006.511719 152.078125 C 1014.371094 155.320312 1022.949219 156.082031 1029.4375 154.128906 Z M 1029.4375 154.128906 " fill-opacity="1" fill-rule="nonzero"/><path fill="rgb(0%, 0%, 0%)" d="M 1039.183594 144.207031 L 1039.300781 245.429688 C 1039.273438 246.28125 1038.457031 246.953125 1037.460938 246.929688 C 1036.472656 246.910156 1035.695312 246.207031 1035.714844 245.355469 L 1035.59375 144.128906 C 1035.609375 143.28125 1036.441406 142.613281 1037.429688 142.636719 C 1038.40625 142.652344 1039.199219 143.355469 1039.183594 144.207031 Z M 1039.183594 144.207031 " fill-opacity="1" fill-rule="nonzero"/><path fill="rgb(0%, 0%, 0%)" d="M 1037.460938 141.445312 C 1036.609375 141.421875 1035.804688 141.691406 1035.191406 142.195312 C 1034.578125 142.699219 1034.226562 143.378906 1034.210938 144.128906 C 1034.210938 144.128906 1034.335938 245.355469 1034.332031 245.324219 C 1034.3125 246.0625 1034.625 246.746094 1035.203125 247.277344 C 1035.792969 247.800781 1036.585938 248.101562 1037.429688 248.117188 C 1038.28125 248.136719 1039.078125 247.867188 1039.699219 247.367188 C 1040.3125 246.867188 1040.671875 246.1875 1040.683594 245.429688 L 1040.566406 144.199219 C 1040.601562 142.730469 1039.214844 141.484375 1037.460938 141.445312 Z M 1037.917969 245.40625 C 1037.914062 245.523438 1037.847656 245.601562 1037.792969 245.644531 C 1037.746094 245.683594 1037.644531 245.746094 1037.5 245.742188 C 1037.355469 245.742188 1037.269531 245.6875 1037.210938 245.640625 C 1037.164062 245.589844 1037.097656 245.511719 1037.097656 245.355469 C 1037.097656 245.355469 1036.980469 144.132812 1036.980469 144.15625 C 1036.980469 144.042969 1037.046875 143.957031 1037.109375 143.910156 C 1037.164062 143.863281 1037.257812 143.816406 1037.390625 143.816406 C 1037.621094 143.824219 1037.792969 143.988281 1037.792969 144.183594 C 1037.792969 144.203125 1037.917969 245.429688 1037.917969 245.40625 Z M 1037.917969 245.40625 " fill-opacity="1" fill-rule="nonzero"/><path fill="rgb(0%, 0%, 0%)" d="M 1065.144531 171.734375 C 1064.851562 172.863281 1070.28125 180.15625 1069.992188 190.265625 C 1069.703125 200.375 1064.3125 205.890625 1055.910156 212.625 C 1050.121094 217.269531 1041.34375 221.152344 1039.300781 224.574219 C 1037.257812 227.984375 1034.03125 246.859375 1037.164062 246.925781 C 1040.296875 246.988281 1040.816406 244.566406 1042.117188 241.003906 C 1043.414062 237.453125 1050.890625 226.476562 1058.265625 219.332031 C 1065.636719 212.1875 1073.753906 204.804688 1074.132812 191.632812 C 1074.507812 178.457031 1065.644531 169.699219 1065.144531 171.734375 Z M 1065.144531 171.734375 " fill-opacity="1" fill-rule="nonzero"/><g clip-path="url(#id21)"><path fill="rgb(0%, 0%, 0%)" d="M 1130.550781 -10.488281 C 1128.75 -10.148438 1127.621094 -8.628906 1128.011719 -7.089844 C 1128.292969 -6.003906 1154.96875 103.304688 1070.109375 233.378906 C 1069.207031 234.753906 1069.785156 236.488281 1071.386719 237.257812 C 1072.992188 238.027344 1075.019531 237.53125 1075.917969 236.15625 C 1162.082031 104.09375 1134.796875 -7.210938 1134.511719 -8.320312 C 1134.121094 -9.859375 1132.339844 -10.828125 1130.550781 -10.488281 Z M 1130.550781 -10.488281 " fill-opacity="1" fill-rule="nonzero"/></g><path fill="rgb(0%, 0%, 0%)" d="M 1306.789062 89.613281 C 1307.832031 91.859375 1307.660156 94.46875 1306.316406 97.15625 C 1303.75 102.300781 1297.421875 107 1289.394531 109.734375 C 1281.375 112.476562 1273.007812 112.796875 1267.019531 110.589844 C 1263.875 109.441406 1261.65625 107.632812 1260.613281 105.390625 C 1259.574219 103.160156 1259.726562 100.542969 1261.082031 97.851562 C 1263.664062 92.707031 1269.992188 88.015625 1278.011719 85.269531 C 1286.027344 82.535156 1294.390625 82.214844 1300.390625 84.4375 C 1303.53125 85.585938 1305.746094 87.378906 1306.789062 89.613281 Z M 1276.496094 82.011719 C 1267.480469 85.09375 1260.316406 90.492188 1257.324219 96.460938 C 1255.53125 100.027344 1255.355469 103.582031 1256.816406 106.699219 C 1258.261719 109.816406 1261.242188 112.285156 1265.402344 113.816406 C 1272.363281 116.382812 1281.910156 116.078125 1290.914062 113 C 1299.921875 109.921875 1307.082031 104.519531 1310.078125 98.546875 C 1311.863281 94.976562 1312.046875 91.433594 1310.589844 88.320312 C 1309.132812 85.195312 1306.167969 82.734375 1302.011719 81.191406 C 1295.039062 78.628906 1285.496094 78.933594 1276.496094 82.011719 Z M 1276.496094 82.011719 " fill-opacity="1" fill-rule="nonzero"/><path fill="rgb(0%, 0%, 0%)" d="M 1277.714844 84.628906 C 1269.496094 87.445312 1263.003906 92.285156 1260.347656 97.585938 C 1258.90625 100.441406 1258.742188 103.230469 1259.871094 105.648438 C 1260.992188 108.066406 1263.355469 109.992188 1266.703125 111.222656 C 1272.875 113.503906 1281.46875 113.1875 1289.695312 110.382812 C 1297.921875 107.5625 1304.40625 102.730469 1307.0625 97.433594 C 1307.546875 96.445312 1307.890625 95.480469 1308.085938 94.523438 C 1308.453125 92.691406 1308.273438 90.949219 1307.535156 89.363281 C 1306.414062 86.945312 1304.050781 85.011719 1300.703125 83.792969 C 1294.53125 81.519531 1285.929688 81.824219 1277.714844 84.628906 Z M 1267.335938 109.957031 C 1264.386719 108.878906 1262.320312 107.214844 1261.371094 105.140625 C 1260.402344 103.070312 1260.558594 100.644531 1261.839844 98.128906 C 1264.3125 93.15625 1270.46875 88.597656 1278.304688 85.910156 C 1286.140625 83.238281 1294.269531 82.921875 1300.066406 85.058594 C 1303.019531 86.140625 1305.074219 87.800781 1306.03125 89.871094 L 1306.039062 89.871094 C 1306.996094 91.9375 1306.84375 94.359375 1305.574219 96.894531 C 1303.09375 101.855469 1296.929688 106.417969 1289.097656 109.101562 C 1281.261719 111.773438 1273.125 112.089844 1267.335938 109.957031 Z M 1267.335938 109.957031 " fill-opacity="1" fill-rule="nonzero"/><path fill="rgb(0%, 0%, 0%)" d="M 1276.199219 81.367188 C 1266.992188 84.519531 1259.65625 90.058594 1256.585938 96.1875 C 1255.957031 97.441406 1255.519531 98.6875 1255.269531 99.917969 C 1254.777344 102.367188 1255.03125 104.753906 1256.066406 106.953125 C 1257.597656 110.25 1260.714844 112.84375 1265.082031 114.453125 C 1272.246094 117.089844 1282.011719 116.785156 1291.210938 113.640625 C 1300.402344 110.503906 1307.738281 104.960938 1310.820312 98.824219 C 1312.699219 95.066406 1312.875 91.339844 1311.335938 88.058594 C 1309.792969 84.761719 1306.691406 82.175781 1302.328125 80.566406 C 1295.164062 77.921875 1285.386719 78.226562 1276.199219 81.367188 Z M 1265.726562 113.1875 C 1261.742188 111.726562 1258.933594 109.386719 1257.554688 106.445312 C 1256.183594 103.488281 1256.355469 100.136719 1258.066406 96.738281 C 1260.972656 90.933594 1267.96875 85.667969 1276.789062 82.652344 C 1285.597656 79.632812 1294.898438 79.324219 1301.695312 81.835938 C 1305.652344 83.289062 1308.464844 85.621094 1309.835938 88.566406 C 1311.234375 91.507812 1311.046875 94.867188 1309.34375 98.277344 C 1306.425781 104.089844 1299.417969 109.355469 1290.613281 112.359375 C 1281.804688 115.371094 1272.503906 115.679688 1265.726562 113.1875 Z M 1265.726562 113.1875 " fill-opacity="1" fill-rule="nonzero"/><g clip-path="url(#id22)"><path fill="rgb(0%, 0%, 0%)" d="M 1311.535156 92.1875 L 1316.863281 -12.675781 C 1316.917969 -13.640625 1316.042969 -14.460938 1314.898438 -14.503906 C 1313.777344 -14.550781 1312.816406 -13.792969 1312.777344 -12.828125 L 1307.445312 92.035156 C 1307.398438 93.003906 1308.273438 93.820312 1309.402344 93.863281 C 1310.527344 93.902344 1311.492188 93.164062 1311.535156 92.1875 Z M 1311.535156 92.1875 " fill-opacity="1" fill-rule="nonzero"/></g><g clip-path="url(#id23)"><path fill="rgb(0%, 0%, 0%)" d="M 1314.9375 -15.195312 C 1314.175781 -15.222656 1313.449219 -14.992188 1312.882812 -14.550781 C 1312.328125 -14.101562 1312 -13.503906 1311.972656 -12.851562 L 1306.644531 92.007812 C 1306.613281 92.65625 1306.871094 93.285156 1307.390625 93.765625 C 1307.910156 94.25 1308.605469 94.523438 1309.371094 94.554688 C 1310.933594 94.613281 1312.265625 93.558594 1312.332031 92.214844 L 1317.667969 -12.644531 C 1317.734375 -13.988281 1316.519531 -15.132812 1314.9375 -15.195312 Z M 1308.582031 92.832031 C 1308.351562 92.621094 1308.234375 92.351562 1308.238281 92.070312 L 1313.574219 -12.796875 C 1313.59375 -13.085938 1313.730469 -13.347656 1313.976562 -13.535156 C 1314.214844 -13.730469 1314.546875 -13.835938 1314.875 -13.820312 C 1315.558594 -13.789062 1316.097656 -13.292969 1316.070312 -12.707031 L 1310.730469 92.15625 C 1310.707031 92.746094 1310.125 93.199219 1309.433594 93.179688 C 1309.097656 93.164062 1308.804688 93.046875 1308.582031 92.832031 Z M 1308.582031 92.832031 " fill-opacity="1" fill-rule="nonzero"/></g><path fill="rgb(0%, 0%, 0%)" d="M 1338.695312 174.6875 L 1360.835938 58.683594 C 1361.050781 57.292969 1359.929688 56.019531 1358.339844 55.828125 C 1357.570312 55.730469 1356.796875 55.902344 1356.167969 56.308594 C 1355.535156 56.714844 1355.144531 57.300781 1355.035156 57.964844 C 1355.035156 57.949219 1339.148438 141.222656 1334.164062 167.316406 C 1328.511719 163.332031 1318.371094 162.082031 1307.941406 164.675781 C 1293.820312 168.191406 1284.527344 177.378906 1287.183594 185.207031 C 1289.839844 193.042969 1303.425781 196.542969 1317.542969 193.027344 C 1330.367188 189.84375 1339.171875 181.972656 1338.695312 174.6875 Z M 1338.695312 174.6875 " fill-opacity="1" fill-rule="nonzero"/><path fill="rgb(0%, 0%, 0%)" d="M 1399.242188 259.035156 L 1424.972656 124.195312 C 1425.226562 122.582031 1423.925781 121.097656 1422.070312 120.875 C 1421.171875 120.765625 1420.269531 120.964844 1419.546875 121.4375 C 1418.816406 121.902344 1418.355469 122.589844 1418.226562 123.359375 C 1418.226562 123.347656 1399.757812 220.140625 1393.96875 250.46875 C 1387.402344 245.835938 1375.621094 244.382812 1363.492188 247.390625 C 1347.078125 251.480469 1336.273438 262.164062 1339.367188 271.261719 C 1342.441406 280.371094 1358.242188 284.4375 1374.644531 280.351562 C 1389.546875 276.652344 1399.792969 267.503906 1399.242188 259.035156 Z M 1399.242188 259.035156 " fill-opacity="1" fill-rule="nonzero"/><path fill="rgb(0%, 0%, 0%)" d="M 1422.28125 120.847656 L 1358.1875 55.847656 L 1350.507812 93.777344 L 1414.910156 156.203125 Z M 1422.28125 120.847656 " fill-opacity="1" fill-rule="nonzero"/></g></g></g></svg>